<?xml version="1.0" encoding="utf-8"?>
<!-- Generator: Adobe Illustrator 25.0.0, SVG Export Plug-In . SVG Version: 6.00 Build 0)  -->
<svg version="1.1" id="katman_1" xmlns="http://www.w3.org/2000/svg" xmlns:xlink="http://www.w3.org/1999/xlink" x="0px" y="0px"
	 viewBox="0 0 700 700" style="enable-background:new 0 0 700 700;" xml:space="preserve">
<style type="text/css">
	.st0{enable-background:new    ;}
</style>
<g>
	<g class="st0">
		<path d="M220.4,642.7h3.2l-4,11.8h-3.2l-2.2-8l-2.3,8h-3.2l-4-11.8h3.3l2.3,8.6l2.3-8.6h3l2.4,8.6L220.4,642.7z"/>
		<path d="M239.1,642.7h3.2l-4,11.8h-3.2l-2.2-8l-2.3,8h-3.2l-4-11.8h3.3l2.3,8.6l2.3-8.6h3l2.4,8.6L239.1,642.7z"/>
		<path d="M257.8,642.7h3.2l-4,11.8h-3.2l-2.2-8l-2.3,8h-3.2l-4-11.8h3.3l2.3,8.6l2.3-8.6h3l2.4,8.6L257.8,642.7z"/>
		<path d="M263.5,652.1c0.3,0.3,0.4,0.6,0.4,1s-0.1,0.8-0.4,1.1s-0.6,0.4-1,0.4c-0.4,0-0.8-0.1-1-0.4c-0.3-0.3-0.4-0.6-0.4-1.1
			c0-0.4,0.1-0.8,0.4-1c0.3-0.3,0.6-0.4,1-0.4C262.8,651.7,263.2,651.9,263.5,652.1z"/>
		<path d="M265.7,642.7h8.8v2.5h-5.7v2.6h5.3v2.5h-5.3v4.3h-3.1L265.7,642.7L265.7,642.7z"/>
		<path d="M283,654.5l-1.7-3.3h-0.1h-2.2v3.3h-3.1v-11.8h5.3c1.6,0,2.8,0.4,3.6,1.1c0.9,0.7,1.3,1.7,1.3,3.1c0,0.9-0.2,1.7-0.5,2.3
			s-0.9,1.1-1.6,1.5l2.5,3.9L283,654.5L283,654.5z M279,648.8h2.2c0.6,0,1.1-0.2,1.5-0.5c0.3-0.3,0.5-0.8,0.5-1.4
			c0-0.6-0.2-1-0.5-1.3s-0.8-0.5-1.5-0.5H279V648.8z"/>
		<path d="M288,642.7h9.3v2.5h-6.2v2.2h5.6v2.4h-5.6v2.2h6.4v2.5H288V642.7L288,642.7z"/>
		<path d="M299.5,642.7h9.3v2.5h-6.2v2.2h5.6v2.4h-5.6v2.2h6.4v2.5h-9.5V642.7z"/>
		<path d="M317,645.3c-0.7-0.2-1.3-0.4-1.8-0.4c-0.4,0-0.7,0.1-0.9,0.2c-0.2,0.1-0.3,0.3-0.3,0.6s0.1,0.5,0.3,0.6
			c0.2,0.2,0.4,0.3,0.7,0.4c0.3,0.1,0.7,0.2,1.2,0.4c0.8,0.2,1.5,0.5,2,0.7s1,0.6,1.4,1.1c0.4,0.5,0.6,1.1,0.6,1.9
			c0,0.8-0.2,1.5-0.6,2c-0.4,0.6-1,1-1.7,1.3s-1.5,0.4-2.4,0.4c-1,0-2-0.2-2.9-0.5c-1-0.3-1.8-0.8-2.5-1.4l1.2-2.4
			c0.6,0.5,1.3,1,2.1,1.3c0.8,0.3,1.5,0.5,2.2,0.5c0.5,0,0.8-0.1,1.1-0.3c0.3-0.2,0.4-0.4,0.4-0.7s-0.1-0.5-0.3-0.7
			s-0.4-0.3-0.7-0.4c-0.3-0.1-0.7-0.2-1.3-0.4c-0.8-0.2-1.5-0.5-2-0.7s-1-0.6-1.4-1c-0.4-0.5-0.6-1.1-0.6-1.9c0-0.7,0.2-1.4,0.6-1.9
			c0.4-0.5,0.9-1,1.7-1.3c0.7-0.3,1.5-0.4,2.5-0.4c0.9,0,1.7,0.1,2.5,0.4c0.8,0.2,1.6,0.6,2.2,1l-1.2,2.5
			C318.2,645.9,317.7,645.6,317,645.3z"/>
		<path d="M320.5,642.7h3.3l2.9,8.5l3-8.5h3.2l-4.6,11.8H325L320.5,642.7z"/>
		<path d="M341.7,648.5h2.7v4.7c-0.6,0.5-1.4,0.8-2.3,1.1c-0.9,0.3-1.8,0.4-2.6,0.4c-1.2,0-2.3-0.3-3.2-0.8s-1.7-1.3-2.3-2.2
			s-0.8-2-0.8-3.1s0.3-2.2,0.9-3.1c0.6-0.9,1.3-1.7,2.3-2.2s2.1-0.8,3.3-0.8c0.9,0,1.8,0.2,2.6,0.5c0.9,0.3,1.6,0.8,2.2,1.3
			l-1.8,2.2c-0.4-0.4-0.9-0.7-1.5-1c-0.6-0.2-1.1-0.4-1.6-0.4c-0.6,0-1.2,0.2-1.7,0.5s-0.9,0.7-1.2,1.2s-0.4,1.1-0.4,1.8
			s0.1,1.3,0.4,1.8s0.7,1,1.2,1.3s1.1,0.5,1.7,0.5c0.6,0,1.3-0.2,2-0.6L341.7,648.5L341.7,648.5z"/>
		<path d="M354.7,643.4c0.9,0.5,1.7,1.2,2.2,2.1c0.5,0.9,0.8,1.9,0.8,3.1c0,1.2-0.3,2.2-0.8,3.1c-0.5,0.9-1.3,1.6-2.3,2.1
			s-2.1,0.7-3.3,0.7h-5v-11.8h5.1C352.7,642.7,353.8,642.9,354.7,643.4z M353,651.6c0.5-0.3,0.8-0.7,1.1-1.2
			c0.3-0.5,0.4-1.1,0.4-1.8s-0.1-1.3-0.4-1.8s-0.7-0.9-1.1-1.2c-0.4-0.3-1-0.4-1.7-0.4h-1.9v6.8h2.1C352,652,352.7,651.9,353,651.6z
			"/>
		<path d="M368,643.3c1,0.5,1.7,1.3,2.3,2.2s0.8,2,0.8,3.1c0,1.2-0.3,2.2-0.8,3.1s-1.3,1.7-2.3,2.2s-2.1,0.8-3.3,0.8
			c-1.2,0-2.3-0.3-3.3-0.8s-1.7-1.3-2.3-2.2s-0.8-2-0.8-3.1s0.3-2.2,0.8-3.1c0.6-0.9,1.3-1.6,2.3-2.2c1-0.5,2.1-0.8,3.3-0.8
			C365.8,642.5,367,642.8,368,643.3z M363,645.6c-0.5,0.3-0.9,0.7-1.2,1.3c-0.3,0.6-0.4,1.1-0.4,1.8s0.1,1.2,0.4,1.8s0.7,1,1.2,1.3
			s1,0.5,1.6,0.5c0.6,0,1.1-0.2,1.6-0.5s0.9-0.7,1.2-1.3c0.3-0.5,0.4-1.1,0.4-1.8c0-0.6-0.1-1.2-0.4-1.8c-0.3-0.5-0.7-1-1.2-1.3
			s-1-0.5-1.6-0.5C364.2,645.1,363.5,645.3,363,645.6z"/>
		<path d="M386.8,642.7h3.2l-4,11.8h-3.2l-2.2-8l-2.3,8h-3.2l-4-11.8h3.3l2.3,8.6l2.3-8.6h3l2.4,8.6L386.8,642.7z"/>
		<path d="M399.2,642.7h2.9v11.8h-2.7l-5.4-7.1v7.1h-2.9v-11.8h2.7l5.4,7.1V642.7z"/>
		<path d="M404.3,642.7h3.1v9.2h5v2.6h-8.1V642.7z"/>
		<path d="M422.8,643.3c1,0.5,1.7,1.3,2.3,2.2c0.6,0.9,0.8,2,0.8,3.1c0,1.2-0.3,2.2-0.8,3.1s-1.3,1.7-2.3,2.2s-2.1,0.8-3.3,0.8
			c-1.2,0-2.3-0.3-3.3-0.8s-1.7-1.3-2.3-2.2s-0.8-2-0.8-3.1s0.3-2.2,0.8-3.1c0.6-0.9,1.3-1.6,2.3-2.2c1-0.5,2.1-0.8,3.3-0.8
			C420.7,642.5,421.8,642.8,422.8,643.3z M418,645.6c-0.5,0.3-0.9,0.7-1.2,1.3c-0.3,0.6-0.4,1.1-0.4,1.8s0.1,1.2,0.4,1.8
			s0.7,1,1.2,1.3s1,0.5,1.6,0.5c0.6,0,1.1-0.2,1.6-0.5s0.9-0.7,1.2-1.3c0.3-0.5,0.4-1.1,0.4-1.8c0-0.6-0.1-1.2-0.4-1.8
			c-0.3-0.5-0.7-1-1.2-1.3s-1-0.5-1.6-0.5C419,645.1,418.5,645.3,418,645.6z"/>
		<path d="M435.8,654.5l-0.8-2.1h-5.1l-0.8,2.1h-3.2l5.1-11.8h3.2l5,11.8H435.8z M430.8,650.1h3.3l-1.6-4.2L430.8,650.1z"/>
		<path d="M448.5,643.4c0.9,0.5,1.7,1.2,2.2,2.1c0.5,0.9,0.8,1.9,0.8,3.1c0,1.2-0.3,2.2-0.8,3.1c-0.5,0.9-1.3,1.6-2.3,2.1
			s-2.1,0.7-3.3,0.7h-5v-11.8h5.1C446.5,642.7,447.5,642.9,448.5,643.4z M446.8,651.6c0.5-0.3,0.8-0.7,1.1-1.2
			c0.3-0.5,0.4-1.1,0.4-1.8s-0.1-1.3-0.4-1.8s-0.7-0.9-1.1-1.2c-0.4-0.3-1-0.4-1.7-0.4h-1.9v6.8h2.1
			C445.8,652,446.5,651.9,446.8,651.6z"/>
		<path d="M454.5,652.1c0.3,0.3,0.4,0.6,0.4,1s-0.1,0.8-0.4,1.1s-0.6,0.4-1,0.4c-0.4,0-0.8-0.1-1-0.4c-0.3-0.3-0.4-0.6-0.4-1.1
			c0-0.4,0.1-0.8,0.4-1c0.3-0.3,0.6-0.4,1-0.4C454,651.7,454.3,651.9,454.5,652.1z"/>
		<path d="M464,645.6c-0.5-0.3-1-0.4-1.6-0.4c-0.6,0-1.1,0.1-1.6,0.4c-0.5,0.3-0.9,0.7-1.2,1.2s-0.4,1.1-0.4,1.7
			c0,0.6,0.1,1.2,0.4,1.7s0.7,0.9,1.2,1.2s1,0.4,1.6,0.4c0.5,0,1-0.1,1.5-0.4c0.5-0.2,1-0.6,1.4-1l1.8,1.9c-0.6,0.7-1.4,1.2-2.3,1.6
			c-0.9,0.4-1.8,0.6-2.6,0.6c-1.2,0-2.2-0.3-3.2-0.8s-1.7-1.3-2.2-2.2s-0.8-2-0.8-3.1s0.3-2.2,0.8-3.1c0.5-0.9,1.3-1.6,2.3-2.2
			c1-0.5,2-0.8,3.2-0.8c0.9,0,1.7,0.2,2.6,0.5c0.9,0.4,1.6,0.9,2.2,1.5l-1.8,2.2C465,646.2,464.5,645.8,464,645.6z"/>
		<path d="M477,643.3c1,0.5,1.7,1.3,2.3,2.2c0.6,0.9,0.8,2,0.8,3.1c0,1.2-0.3,2.2-0.8,3.1s-1.3,1.7-2.3,2.2s-2.1,0.8-3.3,0.8
			s-2.3-0.3-3.3-0.8s-1.7-1.3-2.3-2.2s-0.8-2-0.8-3.1s0.3-2.2,0.8-3.1c0.6-0.9,1.3-1.6,2.3-2.2c1-0.5,2.1-0.8,3.3-0.8
			C475,642.5,476.2,642.8,477,643.3z M472.2,645.6c-0.5,0.3-0.9,0.7-1.2,1.3c-0.3,0.6-0.4,1.1-0.4,1.8s0.1,1.2,0.4,1.8
			c0.3,0.5,0.7,1,1.2,1.3s1,0.5,1.6,0.5c0.6,0,1.1-0.2,1.6-0.5s0.9-0.7,1.2-1.3c0.3-0.5,0.4-1.1,0.4-1.8c0-0.6-0.1-1.2-0.4-1.8
			c-0.3-0.5-0.7-1-1.2-1.3s-1-0.5-1.6-0.5C473.2,645.1,472.8,645.3,472.2,645.6z"/>
		<path d="M481.8,642.7h3.4l3.4,6.9l3.4-6.9h3.4v11.8h-2.8V647l-3,6.3h-2l-3-6.3v7.5h-2.7L481.8,642.7L481.8,642.7z"/>
	</g>
</g>
<g id="sdbIeU_1_">
	<g>
		<path d="M488.4,182c-1.1,1.6-2.5,2.7-4.3,3.6c-0.6,0.3-1,0.7-1.4,1.2c-0.9,1.1-1.9,2.2-2.9,3.3c-0.1,0.1-0.2,0.2-0.2,0.3
			c-3.9,5.6-8.4,10.6-11.7,16.6c-0.7,1.3-1.6,2.5-2.4,3.7c-0.4,0.6-0.9,1-1.7,1.3c-1.3,0.5-2.1,1.5-2.9,2.5c-2.8,3.4-5.4,6.9-8,10.5
			c-2.7,3.7-5.5,7.3-8.6,10.7c-3.2,3.5-5.7,7.4-8.5,11.2c-5.8,7.8-11.7,15.5-17.5,23.3c-3.6,4.8-7.2,9.5-10.6,14.5
			c-0.2,0.4-0.5,0.7-0.9,0.8c-0.4,0.2-0.9,0.2-1.3-0.2c-0.4-0.4-0.2-0.8-0.1-1.2c0.6-1.3,1.5-2.4,2.3-3.5c2.9-3.8,5.4-7.9,8.3-11.7
			c1.8-2.4,3.7-4.8,5.4-7.2c2.8-3.8,5.4-7.6,8.2-11.4c2-2.7,3.9-5.4,5.9-7.9c1.8-2.2,3.3-4.6,5-6.9c2.8-3.8,5.5-7.7,8-11.7
			c1.3-2.1,3-4,4.5-6c1.8-2.5,3.8-4.9,5.3-7.6c0.3-0.6,0.6-1.1,0.6-1.8c0.1-1.6,1-2.8,2-3.8c4.5-4.4,7.9-9.7,11.9-14.5
			c2.3-2.7,3.8-5.9,5-9.2c0.1-0.4,0.3-0.7,0.4-1c1.1-2.4,1.8-2.8,4.3-2.4c1,0.2,2,0.3,2.8,0.9c0.9,0.6,2,0.3,2.8,1
			C488.4,180.3,488.4,181.2,488.4,182z"/>
		<path d="M211.6,617.3c0,0,0.1,0,0.1,0c1.3-2.1,2.9-4.1,2-6.9c-0.5-1.6-0.2-3.1,0.6-4.5c1.8-3.1,3-6.6,4.9-9.8
			c1.7-3,3.3-6.1,5.1-9.1c0.9-1.5,1.9-2.8,3.2-4c1.7-1.7,3.3-3.4,5.1-5c2-1.8,4.3-3.1,6.7-4.2c0.3-0.1,0.6-0.2,1-0.3
			c1-0.1,1.4,0.4,1.2,1.4c-0.8,3.7-1.9,7.3-3.7,10.8c-1.3,2.5-2.9,4.9-4.3,7.4c-0.3,0.5-0.8,1-1.3,1.3c-0.5,0.3-0.9,0.6-1,1.2
			c-0.5,2.6-2.1,4.6-3.4,6.8c-0.7,1.3-1.6,2.4-2.6,3.5c-0.4,0.4-0.5,0.8-0.6,1.3c-0.5,2.3-3.1,4.7-5.4,5c-0.4,0.1-0.7,0.1-1.1,0.2
			c-1.4,0.1-2.4,0.8-3.1,2.1c-0.8,1.6-1.5,3.2-2.3,4.8c-0.1,0.1,0,0.3-0.1,0.5c-0.9,0.2-1.2-0.1-1-1
			C211.7,618.3,211.6,617.8,211.6,617.3z"/>
		<path d="M365.1,81.7c0.1,1.3-0.3,2.6-1,3.7c-0.2,0.4-0.5,0.8-1.1,0.7c-0.7-0.2-0.5-0.8-0.4-1.3c0.1-0.6,0.3-1.1,0.5-1.7
			c0.8-2.1-0.2-3.8-1.5-5.3c-1.2-1.4-2.9-1.2-4.6-0.9c-0.5,0.1-1,0.4-1.5,0.7c-0.5,0.3-1,0.6-1.5,0.3c-1.1-0.5-1.8,0-2.6,0.7
			c-2.4,2.2-4.6,4.5-7,6.7c-1.4,1.4-2.7,2.8-4.4,4c-0.9,0.6-1.8,0.9-2.8,0.5c-1.3-0.4-2.1,0-3.1,1c-4.3,4.5-8,9.6-11.4,14.8
			c-2.1,3.2-4.3,6.3-6.4,9.5c-2.5,3.9-5.2,7.7-7.7,11.6c-3.4,5.4-7,10.7-10.5,16.1c-3,4.6-5.9,9.1-8.9,13.7
			c-1.4,2.1-2.9,4.1-4.7,5.9c-0.8,0.8-1.6,1.3-2.8,1.1c-0.7-0.1-1-0.5-0.9-1.2c0.1-0.6,0.4-1.1,0.6-1.6c2.1-3.9,4.4-7.6,6.9-11.2
			c4.5-6.3,8.8-12.7,13-19.3c1.9-3,3.9-6.1,5.9-9c2.3-3.3,4.3-6.8,6.6-10.1c0.9-1.3,1.7-2.7,2.7-3.9c0.5-0.6,0.9-1.3,1.2-2
			c0.8-2,2-3.6,3.4-5.1c2.1-2.2,3.5-4.9,4.8-7.6c0.3-0.7,0.6-1.4,0.7-2.1c0.2-1.1,0.9-2.1,1.5-3c1.1-1.6,1.2-2.2,0-3.7
			c-0.8-1-0.7-2.2-0.4-3.4c0.5-1.7,1-3.4,1.5-5c0.3-1,0.6-2,0.8-3c0.1-0.6,0.2-1.3,0.8-1.8c0.2-0.2,0.3-0.5,0.3-0.8
			c0.3-1.8,0.9-3.5,1.5-5.2c0.2-0.6,0.2-1.1-0.3-1.5c-1.1-0.9-1.2-2.2-1.3-3.5c-0.1-0.8,0.1-1.6-0.6-2.2c-1-0.8-1.9-1.6-3.3-1.8
			c-1.8-0.2-3.2,0.1-4.2,1.8c-0.2,0.4-0.6,0.6-0.9,0.9c-0.2,0.2-0.5,0.3-0.8,0.1c-0.3-0.1-0.3-0.5-0.3-0.8c0-0.4,0.2-0.8,0.4-1.2
			c1.7-2.6,4.4-3.4,7.4-2.3c0.6,0.2,1.2,0.5,1.8,0.9c1.3,0.8,2.1,1.9,2.2,3.5c0,1.5,0.4,2.8,1.7,3.7c0.7,0.5,0.7,1.3,0.5,2
			c-1.1,3.3-2.1,6.6-3.2,9.9c-0.6,2-1.2,3.9-1.7,5.9c-0.1,0.4-0.2,0.7-0.2,1.1c-0.1,0.6-0.1,1.2,0.5,1.4c0.5,0.2,0.8-0.3,1.1-0.7
			c0.9-1.1,1.6-2.4,2.3-3.7c0.7-1.3,1.5-2.6,1.9-4c1.2-4,2-8.1,2.3-12.3c0.1-2.7,0.6-5.2,2.3-7.4c1.1-1.4,1.1-3.3,1.6-5
			c0.5-1.9,1.4-3.6,2.8-4.9c0.5-0.4,0.9-0.8,1.6-0.8c0.8-0.1,1.1-0.7,1.3-1.4c0.2-0.8,0.8-1.3,1.4-1.9c1.3-1.4,2.4-3.1,4-4.2
			c0.5-1.6,1.8-2.2,3.2-2.8c1-0.4,1.7-1,2.4-1.8c0.3-0.3,0.6-0.6,0.9-0.9c0.2-0.2,0.5-0.3,0.8-0.2c0.3,0.2,0.3,0.5,0.3,0.8
			c0,0.5-0.2,1-0.5,1.4c-0.4,0.6-0.5,1.3-0.6,2c0,0.2,0,0.4,0.2,0.5c0.2,0.1,0.4,0,0.6-0.2c0.4-0.4,0.7-0.9,0.9-1.5
			c0.1-0.5,0.3-0.9,0.9-0.9c0.6,0,0.9,0.3,1.2,0.8c0.1,0.2,0.2,0.4,0.3,0.6c0.5,0.8,0.7,0.8,1.3,0.1c0.8-1,1.6-1,2.5-0.2
			c0.4,0.3,0.7,0.7,0.9,1.2c0.3,0.5,0.7,1,1.4,1.2c0.8,0.3,1.2,0.9,1.4,1.7c0.3,1.2,0.4,2.5,0.4,3.7c0,1.4,0,2.9,0.3,4.3
			c0.4,1.7,0,3.2-1,4.5c-0.7,0.9-1.2,1.9-1.4,3c-0.2,1-0.7,1.8-1.4,2.5c-1.6,1.5-2.5,3.6-4.1,5.1c-0.5,0.5-0.1,0.8,0.4,1
			c1,0.4,1,0.6,0.3,1.3c-0.1,0.1-0.1,0.1-0.2,0.2c-4.5,3.3-8.8,7-13.9,9.7c-4.5,2.4-8.1,6-11,10.2c-0.6,0.9-1.3,1.8-1.8,2.9
			c-0.2,0.4-0.4,0.9,0,1.3c0.4,0.4,0.8,0,1.2-0.2c1-0.5,1.9-1.2,2.7-2c3.4-2.9,6.8-6,9.9-9.3c0.6-0.7,1.3-1,2.2-0.5
			c0.5,0.3,1,0.3,1.6,0.1c0.6-0.1,1.2-0.2,1.7-0.3C361.3,74.3,365.1,77.3,365.1,81.7z"/>
		<path d="M348.8,207.1c0.2-3-0.8-5.7-2.4-8.3c-0.9-1.5-1.8-2.9-2.8-4.3c-0.3-0.4-0.7-0.9-1.1-1.2c-1.3-0.8-1.8-2-2-3.5
			c-0.1-0.4-0.1-0.8-0.4-1.2c-0.7-0.7-0.6-1.6-0.4-2.5c0.7-2.6,1.6-5.2,2.6-7.7c0.8-1.8,1.9-3.2,3.8-4c0.7-0.3,1.2-0.6,1.5-1.2
			c0.5-0.9,1.3-1.1,2.2-1.1c1.3,0,2.7,0,3.9-0.6c0.4-0.2,0.8-0.1,1.2,0.2c0.3,0.2,0.7,0.5,1,0.8c1.9,2,4.2,3.2,6.8,4.1
			c0.7,0.2,1.4,0.6,2.1,0.9c1,0.5,1.2,1.2,0.9,2.3c-0.2,0.8-0.5,1.6-1.1,2.2c-0.7,0.8-1.2,0.9-2.2,0.5c-0.2-0.1-0.4-0.2-0.7-0.4
			c-0.9-0.4-1.3-0.3-1.6,0.3c-0.4,0.9,0,1.7,0.8,2c0.6,0.2,1.1,0.3,1.7,0.4c0.8,0.2,1.6,0.6,2,1.4c0.7,1.1,0.3,2.1-1,2.3
			c-0.7,0.1-1.3,0.1-2,0.2c-0.3,0-0.8,0-0.8,0.4c0,0.3,0.3,0.5,0.6,0.6c0.4,0.2,0.8,0.4,1.3,0.5c1.3,0.4,2.4,1.2,2.9,2.6
			c0.2,0.5,0.3,1.2,0.9,1.3c0.7,0,0.8-0.8,1-1.3c0.8-1.8,1.7-3.5,1.8-5.6c0.1-1.8,0.9-3.5,2-4.9c0.3-0.4,0.7-0.7,1.2-0.9
			c1.4-0.7,2.2-0.4,2.9,0.9c0.9,1.6,0.9,3.1-0.2,4.6c-0.9,1.3-1.3,2.8-1.7,4.3c-0.7,2.7-1.7,5.4-2.4,8.2c-0.4,1.7,0,2.3,1.7,2.7
			c2.9,0.6,5.6,1.6,8.3,2.9c1,0.5,2.1,1,2,2.4c-0.1,1.4-1.2,2-2.3,2.4c-2.5,0.9-4.6,0-6.4-1.8c-0.6-0.6-1.2-1.1-2.1-1.4
			c-1.9-0.6-3.2,0.3-4.3,1.6c-2.1,2.5-4.1,5.1-5.8,7.9c-1,1.7-1.1,3.4-0.1,5.1c0.9,1.5,1.1,3,1.1,4.7c0,2.6,0,5.3-0.2,7.9
			c-0.2,3.1,0.3,3.7,3.2,5.3c1.3,0.7,2.5,1.5,3.6,2.5c0.6,0.6,0.6,0.9-0.1,1.5c-1.5,1.3-3.7,1.4-5.4,0.4c-1.3-0.9-2.5-1.9-3.6-3.1
			c-1.5-1.7-3.1-3.3-4.4-5.1c-0.5-0.7-0.8-1.4-0.8-2.3c-0.1-1.6-1.9-3.2-3.6-3.2c-0.4,0-0.9,0.1-1.1,0.5c-1.2,2.6-2.1,5.2-1.4,8.1
			c0.4,1.5,1.6,2.3,2.7,3.2c0.6,0.4,1.2,0.9,1.6,1.6c0.5,0.9,0.2,1.6-0.8,1.9c-3.2,0.9-6.9-1.1-7.9-4.3c-0.6-1.8-1.1-3.6-1.7-5.4
			c-0.6-1.6-0.2-3.3,0-5c0.2-1,0.3-2.1,0.3-3.1c0-0.6-0.1-1-0.8-1.1c-3-0.5-4.1-2.7-4.7-5.4c-0.9-4.7-1.2-9.4-1.3-14.1
			c-0.1-1.9-0.3-3.8-1.1-5.6c-0.6-1.5-1.5-2.5-3.2-2.5c-1.7,0-3.7,1.4-4.2,2.9c-0.2,0.4-0.3,0.9-0.4,1.3c-0.1,0.4-0.1,0.8-0.6,0.8
			c-0.6,0-0.8-0.4-0.9-0.9c-0.2-0.9-0.2-1.8,0.1-2.7c0.1-0.6,0.3-1.1,0.5-1.7c0.7-2.1,1.9-2.9,4.2-2.9c0.7,0,1.2,0.3,1.7,0.7
			c3.5,3,6,6.6,6.3,11.4c0.1,2.3,0.2,4.5,0.5,6.8c0.3,2.4,0.7,4.8,1.4,7.1c0.1,0.4,0.3,0.8,0.6,1.1c0.7,0.7,1.3,0.6,1.9-0.2
			c0.6-0.9,1-1.9,1.4-3c0.6-1.8,1.3-3.5,2.1-5.2C348.4,211.8,348.9,209.6,348.8,207.1z"/>
		<path d="M319.9,351.2c0.5,1,1.1,1.7,1.9,2.4c0.2,0.1,0.3,0.3,0.5,0.4c0.3,0.4,0.9,0.8,0.4,1.3c-0.5,0.5-0.9,0-1.3-0.3
			c-1.2-0.9-1.9-2.2-2.7-3.5c-1.6-2.7-2.8-5.5-4.3-8.2c-1.3-2.4-3.1-4.2-5.5-5.5c-2-1.1-3.7-2.6-5-4.5c-1.5-2.1-3.5-2.9-6-2.5
			c-0.6,0.1-1.2,0.2-1.1,1c0,0.3,0,0.6-0.4,0.7c-0.3,0-0.5-0.2-0.6-0.4c-0.1-0.1-0.2-0.3-0.2-0.4c-0.1-0.2-0.3-0.4-0.6-0.4
			c-0.4,0.1-0.4,0.4-0.3,0.7c0.3,1.1,0.7,2.1,1.5,2.8c0.8,0.7,0.9,1.6,0.6,2.5c-0.1,0.2-0.1,0.6-0.3,0.7c-1,0.5-0.6,1.1-0.1,1.7
			c0.6,0.8,1.3,1.7,1.9,2.5c0.5,0.6,0.4,1-0.4,1.2c-1.4,0.4-2.3,0-3-1.1c-1.3-2-2.2-4.3-3.6-6.3c-0.1-0.2-0.2-0.4-0.2-0.6
			c-0.1-0.3-0.2-0.7,0.1-0.9c0.4-0.3,0.6,0.1,0.8,0.4c0.1,0.1,0.2,0.3,0.3,0.4c0.3,0.3,0.6,0.5,1,0.3c0.5-0.3,0.4-0.7,0.3-1.1
			c-0.1-0.2-0.2-0.4-0.3-0.5c-1.9-1.9-3.3-4.2-5.9-5.3c-0.8-0.3-1.5-0.6-2,0.4c-0.2,0.3-0.4,0.2-0.6,0.1c-0.2-0.2-0.5-0.4-0.7-0.5
			c-0.5-0.3-1-0.2-1.4,0.2c-0.3,0.4-0.3,0.9,0,1.3c0.4,0.5,1,0.9,0.6,1.6c-0.4,0.8-1.3,0.6-1.9,0.5c-1.7-0.1-2.2-1.2-1.2-2.6
			c1.3-1.9,2.9-3.4,4.7-4.6c2.4-1.6,4.9-3,7.3-4.5c1.5-1,3.1-2.1,4.5-3.2c1.3-1,2-2.4,2.8-3.8c0.1-0.3,0.3-0.5,0.4-0.8
			c1-1.7,1.6-1.9,3.5-1.6c1.1,0.2,1.2,0.1,1-1c-0.2-1.4-0.5-2.8,0-4.2c0.7-1.8,1.6-2.5,3.6-2.3c1.2,0.1,2.2,1.2,2.5,2.8
			c0.1,0.8,0.2,1.7,0.3,2.5c0.1,1.1,0.6,1.4,1.5,0.9c1.4-1,2.5-0.4,3.6,0.5c2,1.7,3.5,3.9,5.3,5.7c0.6,0.6,1.2,1.3,1.9,1.8
			c1.7,1.4,3.6,1.8,5.7,1.4c1.7-0.3,3.4-0.4,5.1-0.6c1.7-0.2,2.8,0.8,2.9,2.5c0,1-0.1,2.1,0.1,3.1c0.3,2.1,1.5,3.7,3,5.1
			c0.4,0.4,0.7,0.8,1.1,1.2c0.1,0.1,0.2,0.3,0.1,0.5c-0.2,0.2-0.4,0.2-0.6,0c-0.8-0.5-1.5-1.2-2.2-1.9c-1.1-1-2.1-2.1-3.4-3
			c-0.5-0.3-1-0.7-1.5-0.2c-0.5,0.6-0.3,1.2,0.2,1.7c0.8,0.8,1.7,1.4,2.7,2.1c2,1.3,3.7,2.8,5.1,4.6c1.2,1.6,2.6,3,3.9,4.6
			c0.4,0.5,0.7,0.9,1,1.4c0.1,0.2,0.2,0.4,0,0.6c-0.2,0.2-0.4,0.1-0.6,0c-0.5-0.4-1-0.8-1.4-1.2c-1.4-1.2-2.5-2.7-4.3-3.4
			c-0.5-0.2-0.7-0.7-1-1.1c-0.5-0.8-1-1.7-1.7-2.3c-0.3-0.3-0.6-0.6-1-0.4c-0.4,0.3-0.1,0.7,0.1,1c1.1,1.8,1.7,3.7,2.6,5.6
			c0.6,1.3,1,2.6,1.3,4c0.3,1.4,0.4,1.4,1.7,0.8c0.2-0.1,0.4-0.1,0.6,0.1c0.2,0.3,0.1,0.5-0.1,0.7c-0.6,0.5-1.3,1-2.2,0.7
			c-1.3-0.4-2.7-0.3-4-0.3c-0.3,0-0.7,0-0.7,0.3c0,0.3,0.3,0.4,0.5,0.5c3.7,2,7.5,3.7,11.8,4.1c1.3,0.1,1.5,0.4,1.7,1.6
			c0.1,0.3,0.2,0.6,0.2,0.8c0.4,1.2,0.1,1.5-1.2,1.5c-1.2,0-2.4-0.5-3.6-0.7c-0.7-0.1-1.6-0.6-2,0c-0.4,0.6,0.4,1.1,0.9,1.6
			c0.3,0.4,0.7,0.7,0.4,1.2c-0.2,0.4-0.8,0.3-1.2,0.2c-1.6-0.3-3.2-0.8-4.8-0.9c-0.4,0-0.8,0-1.3,0c-0.2,0-0.3,0.1-0.3,0.3
			c0,0.2,0.1,0.3,0.3,0.4c2.4,0.9,4.5,2.3,7.2,2.2c0.7,0,1.6-0.1,1.7,0.9c0,1-0.9,0.8-1.5,0.9c-0.9,0.1-1.8,0.1-2.8,0
			c-0.6,0-1.1-0.2-1.6-0.7c-0.4-0.4-0.9-0.8-1.4-1c-2.2-1.2-4.4-2.3-6.7-3.3c-0.3-0.1-0.6-0.3-0.8-0.1c-0.4,0.3-0.1,0.7,0,0.9
			c0.7,1.3,1.9,2.1,3.3,2.5c0.8,0.2,1.6,0.3,1.5,1.4c0,0.4,0.3,0.5,0.6,0.5c0.3,0,0.6,0,0.9,0c0.4,0,0.8-0.1,0.9,0.4
			c0.1,0.6-0.3,0.8-0.8,1c-1.4,0.4-2.7,0.1-4-0.6c-1.5-0.8-2.6-2-4-2.8c-0.6-0.4-0.7-1.1-0.8-1.8c-0.3-1.2-1-2.2-1.8-3.1
			c-0.2-0.2-0.5-0.5-0.8-0.5c-0.2,0-0.4,0-0.6,0.1c-0.2,0.2-0.1,0.5,0,0.7c0.4,0.6,0.9,1.1,1.3,1.7c0.6,0.7,1.1,1.4,0.6,2.4
			c-0.3,0.5,0,1,0.4,1.4c0.5,0.6,1.1,1.1,1.7,1.7c0.2,0.2,0.3,0.4,0.2,0.7c-0.1,0.4-0.5,0.3-0.8,0.2c-1.7-0.5-2.8-1.6-3.3-3.2
			c-0.9-3-2.7-5.2-5.1-7.1C320.4,351.3,320.3,351.1,319.9,351.2z M320.8,327.5c-1.9,0-2.3,0.4-1.6,2.2c0.7,1.8,1.9,3.2,3.2,4.6
			c1.4,1.5,2.9,2.9,3.8,4.8c0.2,0.4,0.6,0.8,0.9,1.2c0.2,0.2,0.4,0.3,0.7,0.2c0.2-0.2,0.3-0.4,0.2-0.7c0-0.2-0.1-0.3-0.2-0.5
			c-0.3-0.9-0.5-2-1.2-2.7c-0.9-1,0.5-1.9,0-2.9c0,0,0-0.1,0-0.1c-0.3-1.4-0.6-2.8-1.3-4.1c-0.4-0.8-1-1.2-1.8-1.4
			C322.6,327.7,321.7,327.5,320.8,327.5z M332.1,332.2c-0.4,0.1-1-0.1-1.3,0.5c-0.2,0.5,0.2,0.8,0.5,1.2c0.5,0.6,1,1.2,1.2,1.9
			c0.5,1.8,1.6,3.1,2.9,4.3c0.2,0.2,0.5,0.5,0.8,0.6c0.6,0.2,1,0,0.9-0.7c0-0.5-0.2-1-0.3-1.5c-0.4-1.4-1.1-2.7-1.6-4.1
			C334.5,332.7,333.9,332.2,332.1,332.2z M329.8,338.3c-0.4,0-0.5,0.3-0.5,0.6c0,0.5,0.2,0.9,0.6,1.2c1,0.9,2,1.8,3.3,2.2
			c0.4,0.1,0.7,0.3,1-0.1c0.3-0.4-0.2-0.7-0.4-1c-1-1.4-2.8-1.7-4-2.9C329.9,338.3,329.9,338.3,329.8,338.3z M339,351.6
			c1,1.2,2.2,1.2,3.3,0.3c0.2-0.2,0.5-0.4,0.4-0.7c-0.2-0.4-0.6-0.3-0.9-0.2C341,351.4,340.1,351.6,339,351.6z M330.2,334.8
			c0-0.6-0.9-1.5-1.5-1.4c-0.3,0-0.4,0.2-0.4,0.5c0,0.5,1.1,1.5,1.5,1.5C330.1,335.3,330.2,335,330.2,334.8z M338.5,351.1
			c-0.1-0.3-0.3-0.4-0.6-0.4c-0.2,0-0.5,0.1-0.4,0.3c0,0.4,0.4,0.3,0.7,0.4C338.3,351.4,338.5,351.3,338.5,351.1z M334.3,330
			c-0.1-0.2-0.2-0.4-0.4-0.4c-0.2,0-0.3,0.2-0.3,0.4c0,0.2,0.2,0.3,0.3,0.3C334.1,330.3,334.2,330.2,334.3,330z"/>
		<path d="M408.3,76.1c0-1.2,0-2.4,0-3.6c0-1.1,0.3-2.2,0.9-3.2c0.4-0.6,0.4-1.1-0.5-1.5c-1.1-0.5-1.8-1.4-2.4-2.3
			c-1.3-1.9-2.2-2.2-4.6-1.7c-1.2,0.2-2.4,0.4-3.6,0.4c-0.4,0-1,0.1-1.2-0.5c-0.1-0.6,0.4-0.8,0.7-1c2-1.4,4.2-2.3,6.5-3
			c1-0.3,1.8-0.7,2.5-1.4c0.8-0.8,1.7-1.1,2.7-1.1c1.7,0,3.4,0,5,0c0.7,0,1.2,0.3,1.6,0.8c1.5,1.9,3.1,3.8,4.2,5.9
			c0.2,0.4,0.4,0.7,0.8,1c1.4,0.8,2.1,2.2,2.9,3.6c0.9,1.7,1.9,3.3,3.3,4.7c1.2,1.2,1,2.8,1.1,4.3c0.1,1.1,0,2.3,0.1,3.4
			c0.1,2.5,1.3,4.6,2.3,6.7c0.7,1.4,1.4,2.9,2.1,4.3c0.7,1.3,0.8,2.7,0.7,4.2c-0.2,1.5,0.7,2.5,1.7,3.4c0.4,0.3,0.8,0.3,1.3,0.2
			c2.1-0.4,4.2-1.2,6.4-1.4c2.5-0.3,4.9,0,7.3,0.6c1.8,0.5,2.5,2.5,1.6,4.1c-0.4,0.7-1,1.3-1.7,1.6c-1.7,0.8-3.4,1.7-5.2,2.2
			c-3.8,1.1-7.6,1.7-11.5,1.5c-4.7-0.3-9.4-1.1-14-2.3c-2.6-0.7-5.3-1.1-8.1-1.1c-4.7,0-9.4,0-14.1-0.5c-2-0.2-3.8-0.9-5.8-1.3
			c-1-0.2-2-0.4-2.9-0.7c-1.2-0.5-1.5-1.1-0.8-2.2c0.4-0.7,1-1.2,1.8-1.4c1.5-0.4,2.9-0.3,4.4-0.1c2.3,0.2,4.6,0.4,6.9,0.6
			c1.5,0.1,1.7-0.1,1.9-1.6c0.2-1.9,0.5-3.8,1.1-5.7c0.4-1.4,1.3-2.6,1.6-4.1c0.2-0.8,0.4-1.6,0.4-2.5c0-0.9,0.2-1.8,0.8-2.4
			c1.7-1.5,1.7-3.5,1.6-5.5C408.3,77,408.2,76.6,408.3,76.1C408.2,76.1,408.2,76.1,408.3,76.1z"/>
		<path d="M277.1,481c3.5-2.2,6.9-1.1,10.2-0.1c2.3,0.7,4.3,2.1,5.8,4c2.5,3.1,2.7,4.2,0.7,8.1c-2,3.9-6.7,5.9-10.7,4.6
			c-1.1-0.4-2.3-0.5-3.4-0.9c-2.4-0.8-4.1-2.5-5.8-4.3c-1-1.1-2-2.1-3.2-3.3c0,1.1,0.5,1.7,1.1,2.3c1.7,1.8,3,3.7,4.1,5.9
			c1.9,3.8,5,6.6,9.1,8c2.5,0.8,4.9,0.5,7.1-0.8c2.1-1.2,3.7-2.8,5-4.8c1.4-2.2,1.7-4.5,1.1-6.9c-0.9-3.6-2.6-6.8-5-9.7
			c-3.2-3.8-6.1-7.9-7.8-12.7c-1-3-1.3-6.1-0.2-9.1c1.3-3.2,3.9-5,7.3-5.4c2.9-0.3,5.9-0.1,8.7,0.9c1.4,0.5,2.7,1.3,3.6,2.6
			c1.5,2.1,2.8,4.3,4.1,6.6c0.8,1.6,0.2,2.9-1.6,3.3c-1.5,0.3-2.8-0.2-4.1-0.9c-2.1-1.1-4.2-2.3-6.3-3.4c-0.2-0.1-0.5-0.2-0.7-0.3
			c-0.8-0.3-1.8-1-2.4-0.2c-0.7,0.8-1.4,1.7-1,3.1c0.6,2.1,1.9,3.8,3,5.6c3.1,4.8,6.4,9.4,9.2,14.4c0.7,1.3,1.1,2.7,2,3.9
			c0.2,0.2,0.2,0.6,0.2,0.8c0.1,2.6,0.2,5.2-0.5,7.7c-0.7,2.5-2,4.9-3.8,6.9c-2.7,3-5.8,5.2-9.9,5.8c-5.8,0.9-11.3,0-16.3-3.4
			c-4-2.8-6.8-6.4-8.6-10.9c-1-2.7-1.4-5.4-0.8-8.3c0.2-0.9,0.5-1.8,1.3-2.4c0.8-0.6,1-1.3,1.1-2.1c0.1-1,0.2-2.1,0.3-3.1
			c0.5-2.6,2.1-4.5,3.5-6.6c1.7-2.7,3.3-5.4,4.5-8.4c0.6-1.4,0.4-2.9-0.1-4.3c-0.2-0.8-0.5-1.5-0.7-2.3c-0.1-0.2-0.1-0.5,0.2-0.7
			c0.2-0.1,0.4,0.1,0.5,0.3c1.5,1.8,2.9,3.6,3.6,5.8c0.4,1.2,0.3,2.5-0.1,3.7c-1,2.8-2.3,5.4-3.9,7.9
			C277.4,479.1,277,479.9,277.1,481z M277.6,487.6c0.4,1,1,1.4,1.5,1.7c1.3,0.8,2.6,1.3,4.1,1.6c1.1,0.2,2.1,0.1,3.1-0.4
			c1.3-0.6,1.5-1.9,0.3-2.8c-1.5-1.2-3.2-1.6-5-0.7C280.4,487.6,279.3,488.2,277.6,487.6z M276.7,485.7c-0.1,0.1-0.1,0.3-0.1,0.5
			c0,0.1,0.1,0.3,0.2,0.2c0.2-0.1,0.2-0.3,0.1-0.5C276.9,485.8,276.9,485.7,276.7,485.7z"/>
		<path d="M238.6,231.4c0-0.3,0-0.5,0-0.8c-0.4-3.1,1-5.5,2.9-7.7c2.6-3,5.6-5.6,9-7.8c0.9-0.6,1.7-1.2,2.5-1.9c1-0.8,1.1-1,0.2-2
			c-1.5-1.7-2.4-3.7-2.6-6c-0.4-3.6,1.5-5.8,4.3-7.6c0.3-0.2,0.6-0.3,0.9-0.5c1.2-0.6,1.4-1,0.7-2.2c-2.2-3.6-1.4-9.3,1.9-12.4
			c1.5-1.4,3.3-2.3,5.1-3.2c0.7-0.3,1.4-0.6,2.1-0.9c0.3-0.1,0.7-0.2,0.9-0.5c1.6-1.7,3.3-3.1,5.1-4.6c0.5-0.4,0.8-1.1,1.2-1.6
			c3.1-5,9.4-6.2,13.7-1.5c1.4,1.5,1.8,3.4,1.2,5.5c-0.4,1.4-0.8,2.7-1.6,4c-0.7,1.2-1.1,2.5-1.6,3.8c-0.4,1-0.8,2-1.6,2.8
			c-0.7,0.7-0.7,1.8-0.7,2.7c-0.1,1.3,0,2.7,0,4c0,2.3-0.8,4.3-2.4,6.1c-0.8,0.9-1.6,1.7-2.5,2.5c-1.2,1.1-2.7,1.9-4.3,2.3
			c-1.2,0.3-1.3,0.4-1.1,1.6c0.2,1.6,0.3,3.2,0.3,4.9c0,0.8-0.3,1.5-0.8,2.2c-1.4,1.9-3.3,2.8-5.5,3c-1.3,0.1-2.5,0.1-3.8,0
			c-1.7-0.1-3.2,0.2-4.7,1.4c-2.2,1.8-4.5,3.3-6.8,5c-1.6,1.2-3.1,2.5-4.4,4.1c-0.2,0.2-0.4,0.5-0.5,0.7c-0.1,0.1-0.2,0.3-0.1,0.5
			c0.1,0.2,0.4,0.2,0.6,0.1c0.5-0.2,1-0.4,1.5-0.7c1.2-0.6,2.5-1,3.8-1.3c2.2-0.5,3.8,0.8,3.8,3.1c0,0.8,0,1.5-0.4,2.2
			c-0.3,0.7-0.7,1-1.5,0.6c-0.9-0.4-1.1-0.3-1.1,0.7c0,0.1,0,0.3,0,0.4c0.2,2-0.5,2.8-2.5,3c-1.3,0.1-2.4,0.6-3.6,1.1
			c-2.4,1.2-5.6,0.7-7.5-1.2c-0.3-0.3-0.3-0.7-0.3-1C238.6,233.4,238.6,232.4,238.6,231.4z M279.1,179.2c-0.4,0.1-0.7,0.1-1,0.1
			c-0.9,0-1.3-0.5-1-1.4c0.2-0.7,0.8-0.9,1.5-0.8c0.6,0.1,1.4,0.5,1.7-0.3c0.4-0.8,1.2-1.3,1.6-2.1c0.1-0.3,0.3-0.6,0.6-0.5
			c0.3,0,0.3,0.4,0.4,0.6c0.5,0.9,0.6,2,0.9,3c0.1,0.4,0.1,1,0.7,1c0.6,0,0.7-0.6,0.8-1.1c0-0.2,0-0.3,0-0.5c-0.1-1,0.1-2,0.7-2.9
			c0.4-0.6,0.3-1.1-0.1-1.6c-0.9-1.3-2.1-2.4-3.6-3c-1.8-0.8-3.6-0.8-5,0.9c-0.2,0.3-0.5,0.4-0.8,0.5c-1.3,0.4-2.2,1.2-2.5,2.6
			c-0.1,0.4-0.3,0.6-0.6,0.8c-1.5,0.9-1.5,1.2,0,2.1c0.1,0.1,0.3,0.2,0.4,0.3c0.9,0.6,1.1,1.2,0.5,2.2c-0.6,1-0.5,1.7,0.4,2.3
			c0.6,0.4,1.1,0.7,1.6,1.3c0.4,0.4,0.8,0.4,1.2,0.1c0.3-0.2,0.6-0.5,0.8-0.7c1.7-1.6,1.7-1.6,3.5-0.2c0.2,0.2,0.5,0.4,0.8,0.2
			c0.3-0.2,0.5-0.6,0.4-1c-0.2-0.5-0.4-0.8-0.9-1C281.3,179.4,280.2,179,279.1,179.2z M266.7,185.8c-0.6,0-1.4,0.5-2.6,1.5
			c-1.3,1.1-2.5,3.5-1.4,5.5c0.3,0.6,0.5,1.2,0.9,1.8c0.3,0.5,0.4,1.1,1.1,1.1c0.8-0.1,0.7-0.9,0.8-1.4c0.3-1.9,0.6-3.9,1.3-5.7
			c0.2-0.6,0.4-1.3,0.7-1.9C267.6,186.1,267.4,185.8,266.7,185.8z M274.1,192.6c0-0.7-0.1-1.3-0.4-1.9c-0.3-0.6-0.7-0.6-1-0.1
			c-1.1,1.5-1.8,3.1-2.4,4.8c-0.1,0.4-0.2,0.9,0.2,1.1c0.4,0.2,0.8,0.1,1.2-0.1C273.1,195.5,274,194.3,274.1,192.6z M256.9,206.5
			c0,0.4,0.2,1,0.8,1.5c0.5,0.5,0.8,0.5,1.2-0.1c0.7-1.2,1.1-2.5,1.4-3.9c0.1-0.4,0-0.8-0.2-1.1c-0.2-0.3-0.5-0.5-0.8-0.3
			C258,203.6,256.9,204.5,256.9,206.5z M266.4,204.1c-0.6,1.6-1.2,3-1.7,4.4c-0.1,0.2-0.2,0.5,0,0.7c0.3,0.2,0.5-0.1,0.8-0.2
			C266.8,208.1,267.2,206.1,266.4,204.1z"/>
		<path d="M274.5,384.8c-1.7,0-3.1,0.4-4.4,1.1c-1.7,0.9-3.4,1.7-5.1,2.5c-1.3,0.6-2.8,0.7-4.1,1.4c-0.5,0.3-1.3,0.3-1.7-0.3
			c-0.5-0.6-0.4-1.3-0.1-2c0.5-1,1.3-1.8,2.1-2.7c1.5-1.6,3-3.2,4.6-4.8c0.1-0.1,0.2-0.2,0.4-0.4c0.9-1.1,0.9-1.3-0.3-2
			c-2.1-1.1-3.7-2.7-5.1-4.5c-0.9-1.2-1.2-2.6-1.6-3.9c-0.8-3-1.8-5.8-2.7-8.7c-0.2-0.5-0.6-1.1,0-1.5c0.6-0.4,1.3-0.2,1.8,0.3
			c1.1,0.9,2.1,1.8,2.8,3c0.8,1.3,1.5,2.6,2.4,3.9c0.5,0.7,1.1,1.6,2,1.5c0.9-0.1,1.1-1.2,1.4-1.9c0.7-1.7,1.1-3.5,2-5.1
			c0.8-1.4,2-2.4,3.2-3.5c0.3-0.3,0.8-0.5,1.2-0.6c2.6-0.2,5.2-0.3,7.7,0.7c2.6,1.1,5.3,2.1,8.2,2.2c1.1,0.1,1.3,0.4,1,1.5
			c-0.1,0.5-0.3,1-0.5,1.6c-0.6,2.4-2.3,3.2-4.6,3.3c-1.4,0-2.7,0.5-3.9,1.2c-1.1,0.6-1.2,1.3-0.3,2.2c0.7,0.7,1.4,1.2,2.2,1.6
			c4,2,7.6,4.7,10.7,8c1,1,1.6,2.1,2.2,3.4c0.6,1.2,1.2,2.3,1.3,3.7c0.1,1.3,0.1,2.5,0.1,3.8c0,1,0,2-0.1,3c-0.2,2,0.2,3.8,1.2,5.5
			c0.3,0.6,0.8,1.2,0.4,1.9c-0.4,0.7-1.2,0.3-1.9,0.2c-0.9-0.1-1.9-0.4-2.8-0.6c-1-0.3-1.9-0.1-2.7,0.5c-0.8,0.5-1.7,1.1-2.5,1.8
			c-0.5,0.4-1,0.7-1.6,0.9c-1.1,0.4-2.1,0.8-3.1,1.3c-1.9,0.8-3.8,0.8-5.8,0.6c-1.4-0.2-1.7-1.1-1.1-2.3c0.4-0.6,1-1,1.6-1.4
			c1.3-0.8,2.5-1.5,3.8-2.2c0.5-0.3,1.3-0.7,1.1-1.4c-0.2-0.7-1.1-0.5-1.7-0.5c-2.2-0.2-4.4,0.1-6.5-0.4c-2.2-0.5-4.2-1.4-6.1-2.6
			c-0.7-0.4-1.1-1-0.8-1.9c0.2-0.7,1-1.1,2-1c0.9,0.1,1.9,0.4,2.8,0.6c0.8,0.2,1.3,0,1.9-0.5c1-1,1.8-2.2,2.4-3.5
			c0.4-0.9,0.2-1.5-0.7-2.1C276.2,384.8,275.2,384.9,274.5,384.8z"/>
		<path d="M405.3,269c0.5,1.3,1.3,2.2,1.7,3.3c0.3,0.9,0.4,1.8-0.1,2.6c-0.3,0.6-0.5,1.3-0.7,1.9c-1,2.3-2.9,3.6-5.2,4.4
			c-3.5,1.2-6.6,0.3-9.4-1.9c-1.1-0.8-2-1.7-2.4-3.1c-0.3-1-0.7-1.1-1.6-0.5c-2.3,1.5-4.9,2.1-7.6,2c-2.7-0.1-5.4-0.1-8-0.3
			c-1.7-0.1-3-0.8-3.6-2.4c-0.7-1.8-1.6-3.5-2-5.4c-0.1-0.6-0.2-1.2-0.2-1.9c0-0.7-0.1-1.4-0.6-2c-0.5-0.6-0.5-1.3-0.7-2
			c-0.1-0.4-0.2-0.9-0.7-0.9c-0.4-0.1-0.6,0.3-0.7,0.6c-0.3,0.5-0.8,0.6-1.2,0.8c-0.8,0.5-0.9,1.2-0.1,1.6c1.5,0.7,2,2.1,2.5,3.5
			c0.4,1.3,0.9,2.5,1,3.9c0,0.9-0.1,1.6-0.6,2.4c-0.9,1.5-2.1,2.8-3.4,4c-0.8,0.8-1.9,0.9-2.9,1.4c-1.4,0.7-2.7,0.8-4.1,0.7
			c-2.8-0.3-5.1-1.4-7-3.5c-2-2.2-2.1-6.3-0.9-8.3c1.5-2.5,3.3-4.8,6.2-5.8c1.7-0.5,3.5-0.3,5.2-0.1c1,0.1,1.6-0.2,2-1
			c0.2-0.5,0.6-0.9,0.9-1.4c0.4-0.8,0.2-1.3-0.7-1.4c-1.6-0.2-1.6-0.2-1.6-1.8c0-0.3,0-0.7,0-1c0.1-1.2,0.2-1.5,1.4-1.7
			c0.7-0.2,1.1-0.5,1.2-1.2c0.1-0.5-0.1-1.3,0.7-1.5c0.8-0.2,1.5,0.2,2,0.8c0.2,0.2,0.3,0.5,0.5,0.7c0.4,0.6,0.7,0.3,0.9-0.1
			c0.2-0.4,0.1-0.8,0.1-1.2c0-0.7,0.3-1.1,1-1.2c0.7-0.1,1.4-0.3,2-0.7c0.6-0.3,0.9-0.2,1.2,0.4c0.2,0.6,0.6,1,1,1.4
			c1,0.9,0.7,1.9-0.6,2.2c-1,0.3-2.1,0.4-2.9,1.1c-0.3,0.2-0.6,0.4-0.5,0.8c0.1,0.4,0.6,0.4,1,0.4c1.1-0.1,2-0.5,2.8-1.2
			c0.4-0.4,0.9-0.6,1.5-0.4c2.2,1,4.7,1.2,6.9,2.4c1.1,0.6,2.1,1.4,3.1,2.2c0.4,0.3,0.8,0.5,1.4,0.5c4.2-0.2,8.5-0.1,12.7-0.5
			c1.9-0.2,3.8-0.1,5.6-0.4c1.5-0.2,1.9,0.3,1.5,1.8c-0.1,0.3-0.3,0.6,0,0.8c0.3,0.3,0.6,0,0.9-0.2c0.4-0.3,0.8-0.7,1.3-1
			c1-0.6,1.8-0.3,2.2,0.8c0.2,0.7,0.3,1.3,0.1,2c-0.5,1.3-0.1,2.4,0.6,3.4c0.3,0.5,0.6,0.9,0.8,1.4c0.2,0.3,0.2,0.6,0,0.8
			c-0.2,0.3-0.5,0.2-0.8,0.2c-0.6-0.1-1-0.4-1.5-0.7C406.4,269.4,406.1,269.1,405.3,269z M360.6,270.9c0.1-0.6,0-1.1-0.5-1.5
			c-0.1-0.1-0.3-0.2-0.4-0.1c-0.2,0.1-0.2,0.3-0.1,0.5C359.9,270.2,360.1,270.6,360.6,270.9c0,0.3,0,0.7,0,1
			c-0.1,4.3-4.1,6.6-7.9,4.5c-1.2-0.6-1.7-1.6-1.7-2.8c-0.1-2.2,1.3-3.9,3.5-4.2c0.5-0.1,1-0.1,1.4-0.4c0.3-0.2,0.7-0.4,0.6-0.9
			c-0.1-0.4-0.6-0.5-1-0.4c-0.7,0.1-1.5,0.2-2.2,0.4c-3.7,1-5.2,5.6-2.8,8.5c2.2,2.7,7,3,9.4,0.5
			C361.3,275.6,361.6,272.5,360.6,270.9z M393.9,276.5c0,0.1,0,0.2,0,0.2c2.2,2.8,6.9,1.8,8.7-0.9c0.1-0.2,0.2-0.4,0-0.6
			c-0.2-0.2-0.4-0.3-0.7-0.2c-0.4,0.1-0.8,0.4-1.2,0.7c-2,1.5-4,1.9-6.3,0.8C394.2,276.6,394.1,276.4,393.9,276.5z M396.5,264.5
			c-0.6,0-1.2,0-1.7,0c-0.3,0-0.6,0-0.7,0.4c0,0.5,0.4,0.5,0.7,0.5c1,0.1,1.9,0.1,2.9,0.1c1.3,0.1,2.6,0.1,3.8,0.7
			c0.4,0.2,1,1,1.3,0.2c0.3-0.5-0.6-0.8-1-1C400.1,264.8,398.4,264.5,396.5,264.5z M397.6,268.4c-0.6,0-0.9,0-1,0.4
			c-0.1,0.4,0.1,0.6,0.4,0.8c0.5,0.3,1.1,0.2,1.7,0.3c1.2,0.2,2.3,0.6,2.7,1.8c0.2,0.5,0.5,0.7,1,0.4c0.4-0.3,0.3-0.6,0-1
			C401.2,269.5,399.3,268.8,397.6,268.4z M388.9,269.3c1.1-0.4,2-1,2.8-1.8c0.3-0.4,0.6-0.8,0.2-1.2c-0.4-0.4-0.8-0.1-1.1,0.2
			C389.9,267.3,389.2,268.2,388.9,269.3z M387,272.9c-0.5,0-0.9,0.2-0.9,0.8c0,0.3,0.2,0.5,0.5,0.5c0.5,0,0.9-0.3,1-0.8
			C387.7,273,387.4,272.9,387,272.9z"/>
		<path d="M383.4,101.5c0.1,1,0.1,2,0.2,3c0.1,1,0.4,1.9,1.1,2.7c0.9,0.9,1.3,2.1,1.5,3.4c0.3,1.8,0.7,3.6,1.1,5.4
			c0.6,2.3,0.8,4.6,1.2,6.9c0.9,5.4,1.6,10.9,2.6,16.4c0.1,0.5,0.2,0.9,0.3,1.3c0.1,0.4,0.4,0.8,0.9,0.8c1.9-0.1,2.3,1.3,2.5,2.7
			c0.3,2.2,0.3,4.3-0.4,6.5c-0.8,2.3-4,3.4-6,2c-0.9-0.7-1.7-0.8-2.7-0.3c-2.2,1.1-4.4,0.6-6.7,0.4c-2.4-0.2-4.7-0.5-7.1-0.7
			c-2.6-0.2-5-0.8-6.9-2.8c-0.3-0.3-0.6-0.6-0.8-1c-0.4-0.6-0.3-1.2,0.4-1.5c2.8-1.3,3.8-3.9,4.8-6.5c1.2-3.3,1.6-6.7,2.1-10.2
			c0.5-3.9,1.2-7.7,1.7-11.5c0.3-2.4,0.7-4.7,1-7.1c0.2-1,0.4-2,0.7-3.1c0.2-1,0.9-1.7,1.6-2.3c1.1-0.9,1.2-1.5,0-2.2
			c-1.8-1.2-1.5-3.4,0.1-4.5c0.5-0.4,1-0.8,1.5-1.2c0.5-0.5,1-0.7,1.7-0.7c0.9,0,1.8,0,2.6,0.1c0.8,0.1,1.1,0.5,1,1.3
			C383.4,99.8,383.4,100.7,383.4,101.5C383.4,101.5,383.4,101.5,383.4,101.5z"/>
		<path d="M313.2,412.6c-2.6-0.1-6,0.1-9.2-0.6c-0.9-0.2-1.8-0.4-2.7-0.7c-0.3-0.1-0.7-0.3-0.7-0.8c0-0.5,0.3-0.8,0.7-1
			c0.8-0.5,1.8-0.6,2.7-1c1.1-0.4,1.9-1,2.6-1.9c0.6-0.8,1.3-1.5,2-2.2c1.2-1.1,1.8-2.7,2.4-4.2c0.9-2.2,0.5-4.5,0.2-6.7
			c-0.2-1.2-0.2-2.4-0.6-3.6c-0.4-1-1.1-1.5-2-2c-0.5-0.3-0.9-0.1-1.1,0.4c-0.2,0.5-0.4,0.9-0.7,1.3c-0.3,0.4-0.6,0.8-1.1,1
			c-0.4,0.2-0.9,0.3-1.3,0c-0.4-0.3-0.1-0.8,0-1.1c0.2-0.6,0.5-1.3,0.7-1.9c0.3-0.9,0.2-1.1-0.7-1.3c-1.6-0.4-1.9-1.2-1.1-2.6
			c0.6-1.1,0.6-1.6-0.2-2.6c-0.9-1.1-2.1-2-3.1-3c-1.3-1.3-2.6-2.5-3.6-4c-1.1-1.9-1.5-3.9-1.3-6.1c0.1-0.7,0.5-1.3,1-1.7
			c1.7-1.4,3.6-2.2,5.9-2.1c0.9,0,1.6,0,2.3-0.7c0.4-0.5,1.1-0.5,1.8-0.6c0.8-0.1,1.7-0.1,2.5-0.2c1,0,1.3,0.4,1.1,1.4
			c-0.2,0.6-0.6,1.1-1,1.6c-0.6,0.7-0.6,0.8,0.3,1c0.5,0.1,0.8,0.3,1.2,0.6c0.9,0.6,1.7,0.3,2.1-0.8c0.1-0.3,0.1-0.7,0.2-1
			c0.2-1,0.8-1.5,1.9-1.4c0.9,0,1.2,0.3,1.4,1.4c0.4,2.2,0.4,2.2,2.5,1.6c0.2,0,0.3-0.1,0.5-0.1c1.3-0.5,1.3-0.7,0.4-1.7
			c-0.1-0.1-0.1-0.1-0.2-0.2c-0.4-0.5-1-0.9-0.7-1.6c0.3-0.7,1.1-0.7,1.8-0.7c1,0,2.1,0.1,3.1,0.3c0.4,0.1,0.8,0.2,1,0.5
			c0.4,0.7,1,0.6,1.7,0.6c2.8-0.2,5,1,6.8,2.9c0.7,0.7,0.7,1.7,0.5,2.6c-0.5,1.7-0.9,3.3-1.6,4.9c-1,2-2.7,3.4-4.5,4.6
			c-1,0.6-1.7,1.4-2.2,2.3c-0.4,0.7-0.5,1.3-0.1,2c0.2,0.4,0.3,0.8,0.4,1.2c0.1,0.9-0.3,1.5-1.1,1.7c-1.2,0.3-1.3,0.4-0.8,1.6
			c0.2,0.6,0.5,1.3,0.6,1.9c0.2,0.8-0.2,1.1-1,1c-0.3,0-0.7-0.1-0.9-0.4c-0.3-0.3-0.5-0.5-0.7-0.9c-0.4-0.7-0.7-1.8-1.7-1.6
			c-1.1,0.2-1.7,1.1-2.1,2.2c-0.3,1-0.5,2.1-0.5,3.2c0,1.4,0,2.9-0.1,4.3c-0.1,3,1.3,5.2,3.2,7.2c0.4,0.5,0.9,0.9,1.2,1.4
			c0.8,1.5,2.3,2.2,3.8,2.6c0.6,0.2,1.3,0.3,2,0.4c0.5,0.1,0.8,0.3,0.9,0.8c0.1,0.5-0.3,0.9-0.7,1.1c-0.3,0.2-0.7,0.2-1.1,0.2
			c-1.3,0.1-2.7,0.4-3.9,0.8c-0.7,0.3-1.5,0.3-2.2,0.3C317.9,412.6,315.9,412.6,313.2,412.6z M330.2,370c0.3-1.4-2.1-2.8-3.8-2.4
			c-1,0.3-1.2,0.6-0.5,1.5c0.4,0.6,0.6,1.1,0.2,1.7c-1.4,1.9-1.3,4.3-1.8,6.5c-0.2,0.7,0.1,0.9,0.7,0.5
			C328.1,376.2,329.8,373.6,330.2,370z M297.9,369.9c0.1,0.4,0.2,0.9,0.3,1.3c0.4,2.9,2,5,4.4,6.5c0.3,0.2,0.5,0.3,0.8,0.2
			c0.3-0.1,0.3-0.5,0.3-0.8c-0.2-2-0.5-4-1.5-5.8c-0.5-1-0.9-1.8,0.1-2.6c0.3-0.3,0.3-0.7-0.1-0.9c-0.9-0.5-1.9-0.4-2.8,0.1
			C298.6,368.3,298,368.9,297.9,369.9z"/>
		<path d="M428.5,152c-4,0.1-7.7-0.6-11.2-2.7c-0.1-0.1-0.2-0.1-0.3-0.2c-1.5-0.7-1.5-0.7-2.5,0.7c-0.3,0.5-0.6,1-1.1,1.4
			c-1.2,1-2.2,1-3.4,0c-0.1-0.1-0.2-0.2-0.3-0.3c-1.3-1.2-1.3-1.2-2.7,0c-1.5,1.3-3.2,2.2-4.8,3.4c-0.8,0.6-2.7,0.3-3.5-0.4
			c-0.5-0.4-0.5-1,0-1.3c0.3-0.2,0.8-0.4,1.2-0.5c1.7-0.4,2.8-1.5,3.7-2.9c0.8-1.3,1.5-2.6,2-4.1c0.3-0.8,0.2-1.5-0.4-2.2
			c-1-1.1-2-2-3.5-2.4c-0.8-0.2-1.5-0.6-1.9-1.3c-0.1-0.3-0.3-0.5-0.5-0.7c-2-1.7-1.2-5.4,0.5-7.1c0.8-0.8,1.8-0.9,2.8-0.8
			c1.2,0.1,2.4,0.4,3.5,0.8c0.8,0.3,1.6,0.4,2.4-0.1c0.2-0.1,0.4-0.1,0.6-0.2c3-0.4,4.9-2.6,6.7-4.7c0.3-0.3,0.6-0.8,0.6-1.2
			c0-1.2,0.8-1.9,1.5-2.6c1.5-1.4,2.8-2.9,4.1-4.4c0.9-1.1,2-1.9,3.2-2.6c3-1.7,6.1-3.1,9.4-4.2c0.3-0.1,0.6-0.2,0.9-0.2
			c1.4-0.2,1.7,0.1,1.4,1.5c-0.1,0.4-0.1,0.8,0.2,1.1c0.7,0.7,0.7,1.5,0.7,2.3c0,1.2,0.1,2.4-0.4,3.6c-0.1,0.3-0.1,0.7,0.1,1
			c0.5,0.8,0.3,1.6-0.1,2.4c-0.8,1.6-1.6,3.2-2.1,4.9c-0.3,1-1.3,1.8-2,2.6c-0.5,0.6-0.9,1.3-1.1,2.1c-0.4,1.8-1.5,3.3-2.6,4.7
			c-1.3,1.7-2.7,3.4-4.4,4.8c-0.5,0.4-1,0.9-1.7,1.1c-0.4,0.2-0.8,0.5-1.1,0.8c-0.4,0.4-0.5,0.9-0.3,1.4c0.2,0.5,0.7,0.6,1.1,0.6
			c3.3,0.4,6.1,2,8.6,4c0.5,0.4,1.1,0.8,0.8,1.5c-0.3,0.6-1,0.5-1.6,0.5C430.3,152,429.4,152,428.5,152z"/>
		<path d="M411.9,346.7c1.8,0.1,4.1,0.4,6.4,0.3c0.8,0,1.7-0.2,2.5-0.1c1.2,0.1,2.1,0.6,2.7,1.6c1.1,1.8,2.2,3.7,3.2,5.6
			c1.3,2.6,0.6,4.8-1.9,6.2c-1.5,0.9-3.2,1.4-4.9,1.9c-1.9,0.6-3.4,1.6-4.8,2.9c-1.6,1.5-3.2,3.1-4.6,4.8c-3.4,4.7-6.6,9.5-8.4,15.1
			c-0.8,2.3-1.3,4.8-1.6,7.2c-0.1,0.5-0.1,1-0.3,1.5c-0.1,0.3-0.2,0.7-0.6,0.7c-0.5,0-0.6-0.3-0.8-0.7c-0.3-0.6-0.4-1.2-0.8-1.7
			c-0.8-1.3-1.8-1.5-3-0.4c-1.8,1.7-3.4,3.6-4.9,5.5c-2.4,3.2-4.8,6.3-7.3,9.4c-4.7,5.9-10.3,11-14.9,17c-5.2,6.7-10.8,13.1-16,19.9
			c-3.9,5.1-7.9,9.9-11.7,15.1c-2.9,4-5.9,8-8.9,12c-0.4,0.5-0.8,1-1.3,1.5c-0.2,0.2-0.4,0.3-0.6,0.4c-0.4,0.1-0.8,0.2-1-0.1
			c-0.3-0.3,0-0.6,0.2-0.9c1.3-1.8,2.5-3.6,3.9-5.4c2.2-3.1,4.5-6,6.7-9.1c1.8-2.5,3.8-4.9,5.7-7.3c2-2.6,3.9-5.3,5.9-8
			c4.4-5.9,8.9-11.8,13.3-17.6c3-3.9,6.1-7.6,9-11.5c3.8-5.1,8.1-9.7,11.6-15c1.6-2.4,3.2-4.7,4.2-7.4c0.5-1.3,1-2.7,0.4-4.1
			c-0.3-0.7,0.1-1.3,0.5-1.9c0.7-1,1.6-2,2.5-2.8c5.1-4.8,9.3-10.2,12.2-16.6c0.4-1,1-1.9,1.6-2.9c0.2-0.4,0.5-0.7,1-0.9
			c1.4-0.5,2.5-1.6,3.7-2.6c1.3-1.1,2-4.9,0.9-6.7c-0.6-1-1.6-1.1-2.6-1.1c-0.6,0-1.2,0.1-1.9,0.2c-0.4,0-0.9,0.2-1.1-0.3
			c-0.2-0.5,0.2-0.9,0.4-1.2C407.6,347.4,409.1,346.7,411.9,346.7z"/>
		<path d="M309.5,280.9c0-0.9,0.3-1.6,1.1-1.9c1.7-0.5,2.8-1.7,3.8-3.1c1.4-2,2.1-2,4.1-0.6c0.3,0.2,0.6,0.4,0.8,0.6
			c1.5,1.6,3.7,2.1,5.7,2.8c0.4,0.1,0.7,0.1,0.9-0.1c0.6-0.5,1.4-0.7,2.2-0.9c1.2-0.3,2.1-1,3-1.7c0.8-0.6,1.6-1.4,2.5-1.9
			c0.8-0.5,1.3-0.4,1.8,0.4c1,1.8,2.5,3.1,4.4,4c0.4,0.2,0.7,0.5,1,0.8c0.7,0.8,0.8,1.4,0.2,2.4c-0.6,0.9-1.3,1.9-1.9,2.8
			c-0.7,1.1-1,1.1-2.1,0.4c-0.2-0.1-0.4-0.3-0.7-0.2c-0.3,0.2-0.2,0.5-0.1,0.8c0.5,2.1,1.4,4.1,2.5,6c1.1,1.9,2.4,3.5,3.9,5.1
			c0.9,1,0.9,1.3,0.2,2.4c-1,1.4-2,2.8-3,4.2c-0.4,0.6-1,0.7-1.7,0.7c-1.2,0-2.1,0.5-3,1.3c-0.9,0.9-1.9,1.7-3.3,2
			c-0.7,0.1-1.4,0.6-2.1,0.9c-1,0.4-1.8,1.2-2.4,2.2c-0.9,1.6-1.8,1.5-2.7,0.1c-0.8-1.4-2.1-2.2-3.6-2.7c-1.5-0.5-2.9-1.2-4.2-2.3
			c-0.7-0.7-1.6-1.1-2.6-1c-0.8,0.1-1.4-0.3-1.8-0.9c-1.1-1.5-2.2-2.8-3.5-4.1c-0.7-0.7-0.7-1,0.1-1.8c1.6-1.6,3-3.5,4-5.6
			c0.9-1.9,1.9-3.9,1.8-6.1c0-0.3,0.1-0.8-0.2-0.9c-0.4-0.2-0.7,0.2-0.9,0.4c-1,0.7-1,0.7-1.7-0.3c-0.4-0.6-0.9-1.1-1.3-1.7
			C310,282.8,309.6,281.9,309.5,280.9z M323.6,294.8c0-0.5,0-0.9,0-1.4c0-0.6,0.3-0.9,1-0.7c0.8,0.3,1.6,0.3,2.4,0.2
			c1.1,0,1.3,0.1,1.5,1.2c0.3,1.3,0.4,2.6-0.7,3.6c-0.3,0.3-0.8,0.8-0.1,1.1c1.2,0.5,2.5,0.6,3.8,0.2c0.6-0.2,0.7-0.5,0.2-0.8
			c-0.4-0.3-0.9-0.7-1-1.3c-0.3-1.5-0.4-3.1,0.6-4.5c0.5-0.7,0.6-1.1-0.2-1.8c-1.2-0.9-1.1-1.9,0.1-2.7c0.3-0.2,0.5-0.4,0.4-0.7
			c-0.1-0.4-0.3-0.5-0.7-0.6c-0.7-0.1-1.4-0.1-2.1-0.1c-1,0.1-1.3,0.4-1,1.4c0.3,0.7,0.5,1.4,0.5,2.2c0,1.4-0.5,1.7-1.6,1
			c-0.7-0.4-1.4-0.7-2.2-0.2c-0.6,0.3-1,0-1.1-0.7c-0.1-0.8,0-1.6,0.6-2.2c0.6-0.7,0.6-0.9-0.3-1.1c-0.8-0.3-1.7-0.2-2.5-0.1
			c-0.9,0.1-1.1,0.3-0.5,1.1c0.9,1.1,1.1,2.3,0.8,3.7c-0.3,1.6-0.4,1.6,0,3c0.2,0.9,0.2,1.7,0.1,2.6c-0.1,0.5-0.2,0.9-0.2,1.4
			c-0.1,0.5,0.1,0.7,0.6,0.8c0.8,0,1.6,0.1,2.4-0.3c0.4-0.2,0.5-0.4,0.3-0.8C323.7,297.2,323.6,296,323.6,294.8z"/>
		<path d="M441.7,177c5,0,10,0.4,14.9,1c0.4,0,0.7,0.2,1.1,0.3c0.9,0.2,1.2,0.7,0.9,1.6c-0.1,0.5-0.1,1-0.2,1.5
			c-0.3,1.8,0.1,2.3,2,2.5c2.2,0.2,4.4,0.1,6.7,0.1c1.6,0,1.9,0,1.9,1.6c0,0.5,0.2,1.1,0.1,1.6c-0.2,1.2-0.1,2.4,0.7,3.4
			c0.4,0.5,0.2,1.1-0.4,1.4c-2,1-4.1,1.7-6.3,2c-0.7,0.1-1.3-0.3-1.9-0.5c-0.8-0.3-1.1-0.2-1.3,0.6c-0.6,2.3-2.9,3.5-5.1,2.5
			c-1-0.5-2.1-0.9-2.7-2c-0.1-0.2-0.3-0.5-0.6-0.3c-1.4,0.9-3.1,0.8-4.6,0.8c-5.2,0-10.3,0.1-15.5-0.1c-1,0-1.9-0.2-2.9-0.3
			c-0.8-0.1-1.3,0.1-1.8,0.6c-0.5,0.5-1,1-1.6,1.3c-2,0.9-3.6,0.1-5-1.7c-0.5-0.6-0.8-0.9-1.5-0.6c-0.5,0.2-1,0-1.4-0.3
			c-0.9-0.7-1.8-1.4-2.6-2.2c-0.5-0.5-0.6-1-0.2-1.7c0.7-1.1,0.8-2.3,0.8-3.5c0-1.5,0.7-2.2,2.1-2.5c1.5-0.2,3-0.5,4.5-0.5
			c1.9,0,3.8-0.4,5.8-0.4c2.2,0,3.6-1.2,4.7-2.9c0.5-0.7,1-1.3,1.5-2c0.8-1.2,2-1.6,3.4-1.6C438.6,177,440.1,177,441.7,177z
			 M440.5,179C440.5,179,440.5,179,440.5,179c-0.6,0-1.2,0-1.8,0c-2.2-0.3-3.5,1-4.5,2.8c-0.7,1.3-0.4,1.9,1,2c2.7,0.2,5.3,0.2,8,0
			c1-0.1,1.6-0.6,1.8-1.7c0.1-0.5,0.1-1,0.1-1.5c-0.1-1.2-0.5-1.6-1.6-1.6C442.5,179,441.5,179,440.5,179z M449.6,183.8
			c2.1,0,4-0.4,5.5-1.9c0.4-0.3,0.7-0.8,0.6-1.3c-0.1-0.6-0.6-0.7-1.1-0.8c-2.3-0.5-4.7-0.3-7.1-0.6c-0.5-0.1-0.7,0.1-0.7,0.6
			c0,1-0.1,1.9,0.3,2.8c0.2,0.6,0.7,1.1,1.4,1.1C448.7,183.9,449.2,183.8,449.6,183.8z M453.9,190.6c0-0.2-0.2-0.2-0.4-0.2
			c-0.3,0-0.3,0.2-0.3,0.4c0,0.2,0.1,0.3,0.3,0.2C453.8,191,453.9,190.8,453.9,190.6z M458.8,190.2c0,0-0.1,0.1-0.1,0.1
			c0.1,0.1,0.1,0.1,0.2,0.1c0,0,0.1-0.1,0.2-0.1C458.9,190.3,458.8,190.3,458.8,190.2z M420.9,190.3c-0.1,0-0.2,0-0.2,0.1
			c-0.1,0.1,0,0.2,0.2,0.2c0.1,0,0.1-0.1,0.2-0.1C421,190.5,421,190.4,420.9,190.3z M423.4,188.9c-0.1,0-0.1,0.1-0.1,0.2
			c0,0,0.1,0.1,0.1,0.1c0.1,0,0.1-0.1,0.2-0.1C423.5,189,423.5,189,423.4,188.9z M456.2,189.2L456.2,189.2L456.2,189.2L456.2,189.2z
			"/>
		<path d="M357.4,342.8c-1.7-0.2-3.5-0.3-5.4-0.3c0,0-0.1,0-0.1,0c-2.6-0.2-3.4-1.5-2.4-3.9c1.1-2.6,1.4-5.3,0.6-8
			c-0.3-1.1-0.5-2.3-0.3-3.5c0.1-1.4-0.3-2.4-1.4-3.3c-1.4-1.1-1.4-1.2-0.6-2.8c1.3-2.8,1.4-5.8,1-8.9c-0.1-0.8-0.6-1.5-1.1-2.1
			c-0.7-0.7-1.4-1.3-2.3-1.8c-0.7-0.4-1.4-0.9-2-1.5c-0.8-0.8-0.8-1.4-0.2-2.3c0.9-1.4,2.3-2.4,3.3-3.8c0.3-0.5,0.7-0.9,0.9-1.5
			c0.2-0.8,0.8-1.2,1.7-1.2c0.7,0,1.4-0.2,2.1-0.5c0.7-0.3,0.9-0.8,0.2-1.3c-1.1-0.9-2.3-1.6-3.7-1.6c-1.7,0.1-2.4-1-1.3-2.7
			c1-1.6,2.5-2.6,4.1-3.4c0.9-0.4,1.7-1,2.5-1.5c1.3-0.8,2.7-0.6,4-0.1c2.3,0.8,4.3,2.2,6.2,3.8c0.6,0.5,1,1.3,1.1,2.1
			c0.2,1.3-0.2,1.7-1.5,1.7c-1.3,0-2.5,0.4-3.7,1.1c-0.3,0.2-0.7,0.4-0.6,0.8c0.1,0.5,0.6,0.5,0.9,0.5c1.3,0,2,0.7,2.5,1.9
			c0.5,1.3,1.6,2.2,2.5,3.3c0.9,1,1.7,2.1,2.4,3.2c0.8,1.4,0.7,1.8-0.6,2.7c-1,0.7-2.2,1.3-3.2,2c-0.5,0.4-0.8,0.7-0.8,1.3
			c-0.7,7.1-2,14.2-1.9,21.4c0,2.2,0.2,4.4,0.2,6.7c0,0.3,0,0.5,0,0.8C360.3,342.2,359.6,342.9,357.4,342.8z M352.6,331.8
			c0.1,1.3,0.1,2.8,0.3,4.3c0.1,1.1,0.4,2.2,0.9,3.3c0.5,1,1,1.1,1.8,0.3c0.7-0.7,1.1-1.5,1.5-2.3c0.9-2.1,1.6-4.2,0.1-6.5
			c-0.4-0.7-0.6-1.6-0.5-2.4c0-0.8-0.1-1.6-0.5-2.3c-0.5-0.7-1.4-1.2-2.1-1c-0.7,0.1-1.2,0.8-1.2,1.8
			C352.7,328.5,352.7,330.1,352.6,331.8z M348.2,306.1c-0.1-0.7-0.4-1.3-0.6-2c-0.1-0.3-0.4-0.5-0.8-0.5c-0.4,0-0.6,0.3-0.7,0.6
			c-0.4,0.9,0.5,2.3,1.5,2.4C348.2,306.8,348.3,306.5,348.2,306.1z M363,306.7c0.6-0.1,0.8-0.6,0.8-1.1c0.1-0.4-0.1-0.8-0.6-0.7
			c-0.6,0.1-0.7,0.6-0.8,1.1C362.4,306.4,362.6,306.7,363,306.7z"/>
		<path d="M376.7,67.1c-0.2-2.4-0.3-4.8-0.7-7.1c-0.7-4.5-0.6-8.8,1.5-12.9c0.7-1.4,1.2-2.9,1.8-4.3c1.2-2.5,1.2-5.2,1-7.9
			c-0.1-0.7,0-1.5-0.3-2.2c-0.1-0.3-0.1-0.6,0.2-0.8c0.3-0.2,0.6-0.1,0.8,0.1c0.4,0.2,0.5,0.5,0.7,0.9c0.3,1,0.4,2,0.5,3
			c0,1.2,0.1,2.3,0.2,3.5c0,0.2,0.1,0.5,0.4,0.6c0.3,0.1,0.4-0.3,0.5-0.5c0.7-1.4,1-3,1.3-4.6c0.1-0.4,0.1-0.8,0.3-1.2
			c0.1-0.2,0.3-0.5,0.6-0.4c0.3,0,0.5,0.2,0.5,0.5c0.2,0.8,0.5,1.6,0.4,2.5c-0.2,1.5-0.5,3-1,4.4c-0.1,0.2-0.2,0.5,0.1,0.7
			c0.2,0.1,0.4-0.1,0.5-0.3c0.5-0.4,0.9-0.9,1.4-1.3c0.3-0.3,0.6-0.5,0.9-0.7c0.2-0.1,0.5-0.2,0.7,0c0.2,0.2,0.2,0.5,0.1,0.7
			c-0.9,1.3-1,3-2.1,4.2c-0.3,0.3-0.4,0.6-0.6,1c-0.1,0.2-0.1,0.5,0.1,0.7c0.2,0.2,0.5,0.1,0.7,0c0.6-0.3,1.1-0.8,1.6-1.3
			c0.3-0.2,0.6-0.6,1-0.3c0.3,0.2,0.2,0.6,0,0.9c-0.2,0.5-0.3,1-0.5,1.4c-0.3,0.6-0.6,1.3,0.1,1.9c0.4,0.4,0.2,0.9-0.1,1.4
			c-0.2,0.3-0.5,0.5-0.8,0.8c-0.6,0.7-0.6,0.8,0.3,1.2c0.2,0.1,0.5,0.2,0.6,0.4c0.3,1.2,1.3,2.2,0.7,3.6c-0.4,0.9-0.3,1.8,0,2.8
			c0.9,3.6,0.8,7.2,0.2,10.9c-0.2,1-0.3,2.1-0.7,3.1c-0.4,1.1-1,2-2.3,2.2c-0.4,0-0.8,0-0.9,0.5c-0.1,0.4,0.3,0.6,0.6,0.8
			c2.3,1.8,4.6,3.6,7.5,4.5c1.2,0.4,2.5,0.8,3.8,0.7c0.2,0,0.4,0,0.6,0c0.5,0,1,0.1,1.1,0.6c0.2,0.6-0.3,0.9-0.7,1.2
			c-0.7,0.4-1.4,0.9-2.2,1.2c-4,1.6-2.8,1.5-7.2-0.8c-1-0.5-1.9-1-2.9-1.4c-1.4-0.6-2-0.4-2.7,0.9c-0.5,1-1.4,1.4-2.3,1.8
			c-0.5,0.2-1,0.3-1.4,0.5c-0.7,0.4-1.2,0.9-1.2,1.8c0,0.3,0,0.6,0,0.9c-0.1,0.5-0.1,1.1-0.7,1.4c-0.6,0.3-1-0.2-1.4-0.5
			c-0.5-0.4-1.1-0.8-1.7-1.1c-1.3-0.6-2-1.7-2.8-2.8c-0.1-0.2-0.2-0.4-0.1-0.6c0.2-0.2,0.5-0.1,0.7,0c1.9,0.8,2.6,0.7,3.8-0.5
			c1-1.1,1.4-3.2,0.5-4.6c-1.1-1.8-2.5-3.4-4.3-4.5c-1.2-0.7-2.4-0.7-3.5,0.2c-1,0.7-1.9,0.9-2.3,0.4c-0.5-0.8,0-1.5,0.5-2.1
			c1-1.3,2-2.6,3.8-2.9c1.2-0.2,2.4-0.4,3.5,0.2c0.6,0.4,1,0.2,1.2-0.6C376.6,68.8,376.7,68,376.7,67.1z"/>
		<path d="M324.9,429c2.6-0.2,5.1,0.3,7.4,1.4c3.8,1.9,6.3,4.9,7.6,8.9c0.5,1.5,0.9,3,1,4.6c0.2,3-0.7,5.7-2,8.2
			c-1.8,3.4-4.5,5.8-8.1,7.1c-6.5,2.3-13.6,0.4-18-5.2c-3.4-4.3-4.1-9.1-2.8-14.2c0.7-2.8,2.5-5,4.6-7c1.2-1.1,2.6-2,4-2.8
			C320.6,429,322.8,428.9,324.9,429z M325.8,443.7c0.1-2.5-0.7-4.7-2.3-6.5c-0.4-0.5-0.9-0.9-1.5-1c-0.6-0.2-0.8,0.1-0.6,0.7
			c0.8,2.4,0.9,4.8,0.8,7.3c-0.1,2-0.2,3.9-0.9,5.8c-0.2,0.4-0.6,0.8-0.2,1.1c0.4,0.4,0.8-0.2,1.2-0.4c0.1,0,0.1-0.1,0.2-0.2
			C324.6,448.8,325.6,446.4,325.8,443.7z M318.3,440.2C318.3,440.2,318.3,440.2,318.3,440.2c0-1,0-2.1,0-3.1c0-0.3,0-0.7-0.3-0.9
			c-0.4-0.1-0.6,0.2-0.9,0.4c-1.1,0.9-1.8,2.2-2.3,3.5c-0.8,2.4,0.7,5,3.3,5.4c0.7,0.1,0.9-0.1,0.6-0.7c-0.2-0.5-0.4-1-0.4-1.6
			C318.3,442.2,318.3,441.2,318.3,440.2z M333.6,438.9c0-0.3,0-0.5,0-0.7c0-2.3-0.4-2.6-2.6-2.1c-0.8,0.2-1,0.6-0.4,1.2
			c0.7,0.7,1.3,1.5,1.6,2.5c0.1,0.4,0.3,0.8,0.4,1.2c0.1,0.2,0.3,0.4,0.6,0.4c0.3,0,0.4-0.3,0.4-0.5
			C333.8,440.1,333.5,439.4,333.6,438.9z M317.6,447.3c-1.3,0-1.8,0.5-1.8,1.7c0,1.1,0.7,1.9,1.6,1.8c0.8,0,1.8-1.3,1.9-2.2
			C319.2,447.8,318.6,447.3,317.6,447.3z M332.6,448.9c0-1,0-2.1-0.4-3.1c-0.1-0.2-0.2-0.5-0.5-0.5c-0.3,0-0.4,0.3-0.5,0.5
			c-0.2,1.7-0.1,3.3,0,5c0,0.4,0.3,0.7,0.8,0.7c0.4,0,0.6-0.3,0.6-0.7C332.6,450.1,332.6,449.5,332.6,448.9z M330.2,441
			c0.2-0.1,0.5-0.2,0.4-0.6c-0.1-0.3-0.2-0.7-0.6-0.6c-0.4,0.1-0.6,0.4-0.5,0.7C329.5,440.9,329.8,440.9,330.2,441z"/>
		<path d="M334.3,403.7c-0.5-0.9-1-1.8-1.4-2.7c-0.4-0.8-0.8-1.7-0.7-2.6c0-0.4,0.2-0.9,0.6-1c0.5-0.1,0.7,0.4,0.8,0.8
			c0.3,0.6,0.4,1.4,0.9,1.9c0.3,0.3,0.6,0.7,1.1,0.5c0.5-0.2,0.1-0.7,0-1c-0.6-1.7-1-3.3-0.2-5c0.2-0.3,0.3-0.7,0.5-1
			c0.1-0.3,0.4-0.5,0.7-0.4c0.3,0.1,0.4,0.3,0.4,0.6c0.1,0.5,0.2,1.1,0.2,1.6c0,0.5,0,1.1,0.1,1.6c0,0.3,0,0.8,0.5,0.8
			c0.4,0,0.5-0.4,0.5-0.7c0.2-0.8,0.3-1.6,0.5-2.3c0.2-1.2,0.6-2.3,1.3-3.4c0.2-0.4,0.5-0.9,1.1-0.7c0.5,0.1,0.6,0.7,0.6,1.1
			c0,0.6,0,1.2,0,1.8c0,1.8,0.2,3.5,0.8,5.2c0.5,1.6,0.3,3-0.6,4.4c-0.9,1.5-2.2,2.7-3.3,3.9c-0.7,0.8-1.4,1.7-1.4,2.9
			c0,0.4,0,0.9,0.4,0.9c0.4,0,0.6-0.4,0.6-0.8c0.1-0.4,0.1-0.8,0.2-1.2c0.2-0.5,0.5-0.7,0.9-0.2c1.3,1.6,2.5,3.4,3.3,5.3
			c0.4,1,0.8,1.1,1.5,0.3c1.2-1.4,1.7-3.2,1.8-5c0-1-0.5-1.4-1.5-1.3c-0.6,0.1-1.1,0.2-1.7,0.3c-0.3,0-0.6,0-0.8-0.3
			c-0.2-0.3,0-0.6,0.2-0.8c0.5-0.4,0.7-1,0.9-1.6c0.7-1.5,3.6-2.8,5.2-2.3c0.7,0.2,1,0.7,0.9,1.4c-0.4,2.6,0.5,5.1,0.6,7.7
			c0,0.4,0.1,0.8,0.6,0.9c0.4,0.1,0.6-0.3,0.8-0.5c0.7-0.9,1.3-1.9,1.8-3c0.3-0.6,0.5-1.3,1.2-1.3c0.8,0.1,0.9,0.9,0.9,1.6
			c0,0.2,0,0.4,0.2,0.6c1-1.2,1-2.2-0.1-3.4c-1-1.2-2.1-2.3-3.1-3.4c-1-1.2-1.5-2.5-1.3-4.1c0.1-0.9,0.4-1.8,0.6-2.7
			c0.5-1.7,0.9-3.3,0.3-5.1c-0.2-0.5-0.5-1.4,0.3-1.7c0.6-0.3,1,0.5,1.4,0.9c0.9,1,1.1,2.3,1.3,3.6c0.1,0.9,0.1,1.8,0.1,2.6
			c0,0.3,0,0.7,0.4,0.7c0.4,0.1,0.4-0.3,0.5-0.6c0.4-1,0.6-2,0.6-3.1c0-0.6-0.1-1.4,0.8-1.4c0.8,0,1.1,0.6,1.2,1.4
			c0.2,1.2-0.1,2.4-0.1,3.6c0,0.5,0,0.9,0,1.4c0,0.3,0,0.7,0.3,0.7c0.3,0,0.5-0.3,0.6-0.5c0.4-0.7,0.7-1.3,1.1-2
			c0.2-0.3,0.4-0.7,0.9-0.6c0.5,0.1,0.5,0.6,0.5,1c0,1.3-0.6,2.5-1.2,3.7c-0.2,0.4-0.9,1-0.5,1.4c0.6,0.5,1-0.4,1.4-0.7
			c0.4-0.4,0.8-1.1,1.5-0.7c0.8,0.5,0.2,1.1-0.1,1.7c-0.3,0.8-0.9,1.3-1.5,1.9c-0.2,0.2-0.4,0.4-0.2,0.6c0.1,0.2,0.4,0.1,0.6,0.1
			c0.3-0.1,0.6-0.2,0.9-0.4c0.3-0.1,0.6-0.2,0.8,0.1c0.3,0.3,0.2,0.6,0,0.9c-0.3,0.6-0.8,1.1-1.4,1.4c-0.9,0.4-0.9,0.5-0.1,1
			c0.9,0.5,0.9,0.7,0.3,1.5c-0.3,0.4-0.5,0.7-0.1,1.2c0.5,0.6,0.2,1.1-0.4,1.5c-0.4,0.3-1,0.5-1.5,0.7c-0.5,0.1-0.7,0.4-0.2,0.9
			c0.4,0.3,0.7,0.6,0.5,1.2c-0.3,0.5-0.8,0.3-1.3,0.3c-0.2,0-0.4,0-0.6-0.1c-1.1-0.1-1.2,0-0.7,1.1c0.1,0.3,0.4,0.6,0,0.9
			c-0.3,0.3-0.7,0.2-1.1,0c-0.4-0.2-0.8-0.6-1.3-0.8c-0.2-0.1-0.4-0.1-0.6,0.1c-0.1,0.1,0,0.3,0,0.5c0.1,0.3,0.2,0.6,0.3,0.9
			c0.1,0.3,0.2,0.6-0.1,0.8c-0.3,0.2-0.7,0.2-1,0c-0.4-0.2-0.7-0.6-1.1-0.8c-0.2-0.1-0.4-0.2-0.6-0.1c-0.3,0.1-0.3,0.4-0.2,0.7
			c0,0.2,0.1,0.4,0.2,0.6c0.1,0.3,0,0.7-0.3,0.9c-0.3,0.3-0.6,0-0.9-0.2c-0.2-0.1-0.3-0.3-0.5-0.4c-0.5-0.3-0.9-0.2-1,0.4
			c-0.2,1.2-0.2,2.2,0.9,2.9c0.3,0.2,0.6,0.4,0.8,0.6c0.5,0.4,0.7,0.8,0.3,1.4c-0.6,0.9-0.3,1.6,0.4,2.2c0.3,0.3,0.6,0.6,0.8,0.9
			c0.1,0.3,0.2,0.6,0,0.8c-0.2,0.3-0.5,0.3-0.8,0.2c-0.5-0.2-0.9-0.4-1.3-0.8c-0.1-0.1-0.4-0.3-0.6-0.2c-0.3,0.2-0.2,0.4-0.1,0.7
			c0.2,0.6,0.7,1.1,1.1,1.6c0.3,0.4,0.7,0.8,1,1.2c0.2,0.3,0.5,0.7,0.2,1c-0.3,0.3-0.7,0.2-1.1,0.1c-0.9-0.3-1.6-0.9-2.2-1.6
			c-0.2-0.3-0.5-0.7-0.9-0.6c-0.4,0.2-0.3,0.7-0.3,1c0.3,2.5-0.1,4.9-0.4,7.4c-0.1,0.4-0.1,0.8-0.2,1.2c-0.1,0.3-0.1,0.9-0.6,0.9
			c-0.4,0-0.6-0.5-0.6-0.8c-0.2-1-0.4-2-0.6-3c-0.3-1.9-0.6-3.8-0.6-5.7c0-0.3,0.1-0.6-0.2-0.8c-0.3-0.1-0.5,0.2-0.7,0.4
			c-0.6,0.4-1,1-1.7,1.3c-0.4,0.2-0.8,0.4-1.1,0c-0.4-0.4-0.2-0.8,0.1-1.1c0.5-0.7,1-1.3,1.6-2c0.2-0.3,0.4-0.6,0.2-0.9
			c-0.2-0.3-0.5-0.1-0.8-0.1c-0.6,0.1-1.3,0.6-1.7-0.1c-0.3-0.6,0.5-0.9,0.8-1.3c0.3-0.5,0.7-1,0.1-1.5c-0.5-0.4-0.2-0.9,0.1-1.3
			c0.4-0.5,0.9-0.9,1.3-1.4c0.5-0.6,0.9-1.2,1-2c0.1-0.9-0.4-1.2-1.2-0.9c-0.1,0-0.1,0.1-0.2,0.1c-0.5,0.1-0.9,0.7-1.4,0.3
			c-0.5-0.4-0.2-0.9,0-1.4c0.1-0.2,0.1-0.3,0-0.5c-0.2-0.2-0.4,0-0.6,0.1c-0.6,0.3-1.1,0.7-1.7,1c-0.2,0.1-0.5,0.3-0.7,0.1
			c-0.2-0.2-0.2-0.4-0.1-0.7c0.1-0.5,0.2-0.9,0.3-1.4c0-0.3,0.1-0.6-0.2-0.8c-0.3-0.2-0.6,0-0.8,0.2c-0.2,0.2-0.4,0.4-0.7,0.5
			c-0.4,0.2-0.8,0.4-1.2,0c-0.4-0.4-0.2-0.7,0-1.1c0.5-0.8,0.5-0.8-0.4-0.8c-0.2,0-0.3,0-0.5,0c-0.4,0-0.8,0.1-1-0.3
			c-0.2-0.5,0-0.8,0.3-1.1c0.6-0.7,0.5-0.8-0.4-1c-0.4-0.1-0.8-0.1-1.1-0.3c-0.7-0.3-1.1-0.9-0.8-1.6c0.2-0.6,0.3-1.1-0.2-1.6
			c-0.5-0.5-0.5-1.1,0.2-1.5c0.7-0.3,0.3-0.6,0-0.9c-0.4-0.4-0.8-0.7-1.2-1.1c-0.2-0.2-0.4-0.5-0.2-0.8c0.1-0.3,0.4-0.3,0.7-0.3
			c0,0,0.1,0,0.1,0c0.5-0.1,1.2,0.4,1.5-0.2c0.2-0.5-0.6-0.8-0.9-1.3c-0.4-0.5-0.7-1-1-1.6c-0.1-0.3-0.3-0.8,0.1-1
			c0.3-0.2,0.6,0,0.9,0.2c0.9,0.5,1.6,1.4,2.4,2C334.2,403.9,334.3,403.8,334.3,403.7z"/>
		<path d="M324.1,232.4c-2.5,0-4.3,0.2-6.1,0.8c-1.8,0.7-3.6,0.6-5.5,0.4c-1.3-0.2-2.3-1.1-3.3-2c-1.2-1.1-2.1-2.4-2.8-3.9
			c-0.4-0.8-0.8-1.6-1.4-2.2c-0.8-0.9-1.2-1-2,0c-0.8,0.8-1.3,1.9-1.9,2.8c-1.1,1.8-2.3,3.4-4.1,4.5c-0.8,0.5-1.6,0.8-2.5,0.8
			c-1.6,0.1-3.2,0.1-4.8-0.5c-1.8-0.7-3.8-0.6-5.7-0.8c-1.7-0.2-3.3-0.2-5-0.3c-0.8,0-1.5-0.3-2.2-0.6c-0.4-0.2-0.9-0.6-0.7-1.2
			c0.1-0.5,0.6-0.6,1.1-0.6c1,0,1.9,0,2.9,0.1c0.5,0,1,0.1,1.5,0.1c0.3,0,0.6,0,0.7-0.4c0.1-0.3-0.2-0.6-0.5-0.7
			c-0.9-0.3-1.7-0.6-2.7-0.6c-1.1,0-2.1-0.3-3.1-0.6c-0.6-0.2-1.3-0.5-1.2-1.4c0.1-0.7,0.6-1,1.6-1c0.9,0,1.8,0.1,2.6,0.3
			c0.4,0.1,0.9,0.2,1.4,0.2c0.4,0,1,0.2,1.2-0.4c0.2-0.6-0.1-1.1-0.5-1.5c-0.3-0.3-0.8-0.4-1.3-0.5c-1.3-0.3-2.5-0.6-3.8-1
			c-0.4-0.1-0.8-0.3-1.1-0.6c-0.3-0.4-0.5-0.8-0.3-1.3c0.2-0.5,0.6-0.5,1-0.6c1.4-0.1,2.6,0.4,3.9,0.7c0.5,0.1,1.1,0.5,1.4,0
			c0.4-0.7-0.2-1.2-0.7-1.5c-0.9-0.6-1.9-0.9-2.9-1.1c-0.9-0.1-1.7-0.3-2.4-1c-0.4-0.4-0.8-0.8-0.5-1.4c0.3-0.6,0.8-0.7,1.4-0.7
			c1.8,0.1,3.5,0.4,5.2,0.9c0.5,0.2,1.2,0.6,1.6,0c0.4-0.7-0.2-1.2-0.6-1.6c-0.7-0.6-1.4-1.1-2.1-1.8c-0.5-0.4-1-1-0.6-1.6
			c0.4-0.6,1.2-0.4,1.7-0.1c0.6,0.2,1.1,0.5,1.7,0.8c2.9,1.8,5.9,2.6,9.3,2.5c2.5-0.1,4.7,0.6,6.6,2.3c0.8,0.7,1.4,1.4,2,2.2
			c0.4,0.5,0.8,1.1,1.3,1.5c1.3,1.2,2.9,1,3.9-0.4c1.5-2,3.3-3.8,5.7-4.8c1.3-0.5,2.7-0.7,4.1-0.8c3.8-0.2,7.4-1.2,10.6-3.3
			c0.1-0.1,0.3-0.2,0.4-0.2c0.4-0.2,0.9-0.4,1.3,0.1c0.3,0.4,0.1,0.9-0.1,1.3c-0.4,0.6-0.9,1.2-1.6,1.6c-0.5,0.4-1,0.9-1.5,1.4
			c-0.2,0.2-0.6,0.5-0.4,0.8c0.2,0.3,0.6,0.3,0.9,0.3c0.5,0,0.9-0.1,1.3-0.3c1.6-0.7,3.2-0.8,4.9-0.7c0.6,0,1.2,0.1,1.3,0.8
			c0.2,0.7-0.4,1-0.9,1.3c-1.1,0.7-2.3,1-3.5,1.4c-0.7,0.2-1.3,0.5-1.9,0.9c-0.3,0.2-0.5,0.4-0.4,0.7c0.1,0.4,0.5,0.5,0.8,0.5
			c0.9,0,1.8-0.1,2.6-0.4c0.6-0.2,1.2-0.3,1.9-0.3c0.6,0,1.1,0.1,1.3,0.7c0.2,0.6-0.1,1.2-0.6,1.5c-0.6,0.4-1.2,0.6-1.9,0.7
			c-0.9,0.2-1.9,0.5-2.8,0.6c-1.2,0.1-1.8,0.7-1.8,1.4c0.1,0.7,0.7,1,2,0.9c0.6,0,1.2-0.1,1.7-0.3c0.8-0.1,1.5-0.2,2.2,0
			c0.5,0.1,0.9,0.4,1,1c0,0.5-0.3,0.9-0.7,1.1c-1,0.5-2.2,0.6-3.3,0.7c-0.8,0.1-1.7,0.2-2.5,0.5c-0.4,0.1-0.9,0.2-0.8,0.8
			c0.1,0.5,0.6,0.4,0.9,0.4c0.8,0,1.6,0,2.4-0.1c0.7-0.1,1.3-0.1,2-0.1c0.5,0,0.8,0.2,0.9,0.7c0.1,0.5-0.1,0.8-0.6,1
			c-0.8,0.4-1.6,0.6-2.4,0.7C327,232.2,325.3,232.3,324.1,232.4z M308.5,224.2c-0.1,4.2,3.5,7,6.4,6.9c3.3-0.1,6.8-3.3,6.9-6.3
			c0.1-3.7-2.5-7.2-6.7-7.3C311.4,217.4,308.5,220.4,308.5,224.2z M293.1,231.1c3.2,0.1,6.3-2.9,6.4-7.2c0-3.3-3.3-6.5-6.8-6.4
			c-3.4,0-6.4,3.3-6.5,6.9C286.2,227.9,290.3,231.4,293.1,231.1z"/>
		<path d="M461.8,31.4c-1.6,0.3-2.8,0.8-3.6,2.1c-0.2,0.4-0.7,0.4-1.1,0.4c-0.6,0.1-1.3,0.1-1.9,0.2c-1.2,0.1-1.5,0.7-0.7,1.6
			c1.1,1.3,2.3,2.5,4,3c0.3,0.1,0.9,0,0.8,0.6c0,0.5-0.5,0.6-0.9,0.6c-0.9,0.1-1.8,0.2-2.6,0.4c-1.2,0.4-1.7,0.8-1.8,2.1
			c0,0.3,0,0.6,0,0.9c-0.1,0.9-0.4,1.3-1.2,1c-2.9-0.9-4.5,0.9-6,2.8c-0.6,0.7-1,1.4-1.6,2.1c-0.5,0.7-1.1,1.3-1.9,1.7
			c-0.5,0.3-0.9,0.6-1.1,1.1c-0.7,2.3-0.9,4.6,0,6.9c1,2.5,4.2,3.5,6.3,3c1-0.2,1.5-0.8,1.5-1.9c0-0.7,0-1.4-0.1-2.1
			c-0.3-4.2,2.6-6.4,5.7-7.2c1.6-0.4,3.1-0.9,4.7-1.3c0.7-0.2,1.3-0.3,2-0.3c0.2,0,0.4,0,0.5,0.3c0.1,0.3-0.1,0.5-0.3,0.6
			c-0.4,0.3-0.9,0.5-1.3,0.7c-1.3,0.5-2.6,1-3.9,1.4c-1.7,0.6-3.1,1.5-4.4,2.7c-0.7,0.6-1,1.4-0.9,2.2c0,1.2,0,2.4,0.1,3.6
			c0.1,1.3-0.5,2.2-1.5,3c-2,1.6-4.2,1.6-6.5,1c-3.2-0.8-5.8-2.8-8.3-4.9c-0.2-0.1-0.3-0.3-0.5-0.4c-1.3-1.2-1.9-1.1-2.8,0.3
			c-0.6,1-1.4,1.3-2.5,1.1c-1.1-0.2-2.2-0.3-3.2-0.3c-0.4,0-0.9-0.1-1.1-0.5c-0.3-0.5,0-0.9,0.2-1.3c0.4-0.6,1-0.9,1.5-1.3
			c0.7-0.6,0.7-0.9-0.1-1.4c-0.4-0.2-0.7-0.4-1.1-0.6c-0.6-0.4-1-0.8-1.1-1.6c0-0.7-0.3-1.3-0.6-1.9c-0.5-1.3-0.4-2,0.8-2.8
			c0.3-0.2,0.7-0.4,1.1-0.6c0.5-0.3,1-0.5,1.4-0.8c0.8-0.8,0.8-1.5-0.2-1.8c-1.6-0.6-2-1.6-1.9-3.1c0.1-1.2,0-2.4,0-3.6
			c-0.2-2.3,1-4.2,2.2-6c0.2-0.4,0.6-0.8,1.1-0.6c0.6,0.2,0.7,0.7,0.7,1.2c0,0.5-0.1,0.9-0.2,1.3c-0.7,1.9-0.4,3,1,4.3
			c0.3,0.3,0.4,0.6,0.4,1c0,0.4-0.1,0.7-0.2,1.1c-0.1,1.3,0.3,2.2,1.5,2.7c1.9,0.8,3.9,1.1,5.8,1.4c1.1,0.1,2-1.1,1.7-2.2
			c-0.1-0.5-0.4-0.9-0.8-1.3c-1-1.3-2.2-2.4-3.5-3.5c-0.6-0.5-1.2-0.9-2-0.9c-0.3,0-0.7-0.1-0.8-0.5c-0.1-0.5,0.3-0.7,0.6-0.8
			c1.4-0.6,2.9-0.8,4.3-1.4c7.2-3.4,14.9-3.8,22.7-4c0.3,0,0.6,0,0.9,0.1C461.5,31.1,461.6,31.2,461.8,31.4z M434.4,53.7
			c-0.1-0.7-0.5-1.5-1.2-2c-0.6-0.4-1.3-0.1-1.9,0.2c-0.8,0.5-1.6,1.1-2.3,1.7c-0.2,0.1-0.4,0.3-0.4,0.6c0.1,0.3,0.5,0.4,0.7,0.3
			c1.2-0.3,2,0.1,2.7,1.1c0.2,0.2,0.4,0.4,0.7,0.3C433.3,55.8,434.4,54.4,434.4,53.7z M430.2,57.5c-0.3,0.1-0.6,0.1-0.6,0.5
			c0,0.3,0.2,0.6,0.5,0.6c0.4,0,0.6-0.2,0.6-0.6C430.7,57.6,430.4,57.5,430.2,57.5z"/>
		<path d="M366.4,118c-0.2,0-0.3,0.1-0.3,0.2c-0.1,0.3-0.3,0.5-0.7,0.4c-0.4-0.1-0.4-0.4-0.4-0.7c0-0.3,0-0.6,0.1-0.9
			c0.3-0.7,0.6-1.4,1-2c0.3-0.5,0.6-0.6,1.1-0.1c1.2,1.2,1.5,2.8,1.4,4.4c-0.3,4.6-1.3,9.1-3.1,13.4c-0.5,1.2-1.4,2.1-2.8,2.6
			c-2.5,0.9-4.8,2.1-6.9,3.7c-0.6,0.5-1.7,1.1-1.3,1.8c0.5,0.8,1.5-0.1,2.2-0.4c1.1-0.5,2.2-1.1,3.4-1.2c0.8-0.1,1.7-0.4,2.2,0.3
			c0.6,0.8-0.1,1.5-0.4,2.2c-1,2.4-2.7,3.9-5.4,4c-1.8,0.1-2.1,0.6-2.3,2.4c-0.1,0.9-0.2,1.8-0.3,2.7c-0.2,1.5,0.1,2.8,0.7,4.2
			c0.8,2,1.1,4-0.2,5.9c-1.7,2.6-5.7,3.5-8.6,1.8c-1.2-0.7-2.3-1.6-3.1-2.7c-0.8-1.1-1-2.3-0.4-3.5c0.3-0.6,0.5-1.2,0.9-1.8
			c0.7-1,0.9-2.1,0.9-3.3c0-1.3,0-2.7-0.1-4c-0.1-1.1-0.3-1.4-1.3-1.2c-2.9,0.5-4.5-1.1-5.7-3.3c-0.3-0.5-0.6-0.9-0.8-1.4
			c-0.5-1-0.2-1.6,1-1.5c1.2,0.1,2.3,0.3,3.5,0.5c0.2,0,0.4,0.1,0.6,0.2c0.5,0,1.3,0.5,1.5,0c0.3-0.6-0.5-1-1-1.4
			c-2-1.6-4.4-2.5-6.5-4.1c-1.6-1.1-3.1-2.3-4.4-3.7c-0.9-1.1-1.2-2.3-0.9-3.6c0.2-1.1,0.4-2.1,0.7-3.2c0.5-2,0.4-4.2,0.9-6.2
			c0.2-1,0.5-1.9,1.2-2.7c0.2-0.2,0.4-0.5,0.7-0.3c0.3,0.2,0.3,0.5,0.2,0.8c-0.1,0.3-0.1,0.7-0.3,1c-0.5,0.8-0.4,1.7-0.1,2.6
			c0.4,1,0.3,2,0,3c-0.6,2-0.6,4,0.2,6c0.2,0.5,0.3,1.1,0.5,1.7c0.2,0.9,0.8,1.5,1.4,2c0.4,0.4,0.7,0.2,0.7-0.3c0-1-0.3-2-0.8-2.9
			c-1.1-2-1.3-4.1-0.8-6.3c0.2-0.8,0.5-1.5,0.6-2.3c0-0.4,0.2-0.7,0.6-0.6c0.4,0,0.5,0.3,0.5,0.6c0,0.4,0,0.8-0.1,1.1
			c-0.4,2.2-0.1,4.3,0.4,6.5c0.1,0.2,0,0.5,0.3,0.5c0.2,0.1,0.4-0.1,0.5-0.3c0.3-0.3,0.5-0.9,1-0.7c0.4,0.2,0.2,0.8,0.2,1.2
			c-0.1,1.2-0.4,2.4-0.1,3.6c0.3,1.3,0.8,2.4,2,3c0.3,0.2,0.6,0.4,0.9,0.7c1,0.8,1.7,0.6,2.2-0.6c0.1-0.4,0.3-0.8,0.4-1.2
			c0.1-0.4,0.2-0.7,0.4-1c0.1-0.2,0.2-0.5,0.6-0.4c0.3,0.1,0.4,0.3,0.5,0.5c0.1,0.7,0.1,1.4,0.1,2.1c0.1,1.8,1.5,3.4,3.4,3.6
			c0.7,0.1,1.3,0,1.8-0.6c0,0,0.1-0.1,0.1-0.1c1.9-0.9,1.7-2.6,1.6-4.2c-0.1-1-0.2-1.9,0-2.9c0.1-0.3,0.1-0.6,0.5-0.7
			c0.4-0.1,0.6,0.2,0.7,0.6c0.3,0.8,0.4,1.6,0.4,2.5c0.1,2.5,0.6,2.8,2.9,1.8c1.2-0.5,2.6-1.1,3-2.5c0.6-2,1.7-3.8,1.6-6
			c0-0.8,0.2-1.5,1.1-1.7c0.8-0.2,0.9-0.8,0.8-1.5c-0.1-1.2-0.7-2.2-1.4-3.2c-0.1-0.2-0.3-0.4-0.4-0.6c-0.2-0.4-0.2-0.8,0.3-1.1
			c0.4-0.3,0.9-0.1,1.1,0.3c0.4,1,1.5,1.4,2.2,2.2c0.5,0.6,0.8,0.4,1-0.3C366.2,120.1,366.6,119.1,366.4,118z M362.7,131.8
			c0.2,0,0.5-0.1,0.7-0.3c0.6-0.9,0.8-1.9,0.9-2.9c0-0.2-0.2-0.5-0.4-0.5c-0.3,0-0.5,0.2-0.6,0.4c-0.4,0.9-0.7,1.8-1,2.7
			C362.1,131.5,362.3,131.8,362.7,131.8z"/>
		<path d="M317.5,198.5c0.1,0.6,0.5,0.8,0.8,1.1c0.4,0.4,0.6,0.9,0.7,1.5c0.1,0.6-0.1,1.1-0.8,1.1c-2.1,0-3.1,1.4-4,3.1
			c-2.2,4.1-5.7,6.3-10.3,6.8c-1.9,0.2-3.8,0.1-5.6-0.3c-2.8-0.8-4.9-2.7-6.7-4.8c-0.8-0.9-1.5-1.9-2-3c-0.4-0.8-1.1-1.3-2-1.3
			c-0.2,0-0.4,0-0.6-0.1c-1.6-0.3-1.9-1.1-1.2-2.6c0.3-0.5,0.6-0.9,1.1-1.3c0.6-0.5,0.6-0.7-0.1-1c-0.2-0.1-0.5-0.2-0.7-0.3
			c-0.6-0.3-0.8-0.9-0.6-1.5c0.1-0.6,0.6-0.6,1.1-0.6c0.3,0,0.6,0,0.9,0.1c0.9,0.1,1.4-0.3,1.8-1c0.3-0.6,0.6-1.3,1-1.9
			c2.2-3.9,5.4-6.3,10-7c2.7-0.4,5.2-0.3,7.6,0.8c3.3,1.5,5.6,4,7.2,7.2c0.1,0.3,0.3,0.6,0.5,0.9c0.3,0.8,0.9,1.1,1.8,1
			c1.8-0.1,2.4,0.8,1.8,2.5C318.7,198.4,318.3,198.7,317.5,198.5z M301.9,195.3c1.8,0,3.1,0,4.4,0c0.9,0,1.8,0,2.6-0.1
			c1-0.1,1.2-0.5,0.6-1.4c-0.4-0.5-0.8-1-1.2-1.4c-4.6-4.4-10.2-2.6-13.4,1.4c-0.5,0.7-0.4,1.1,0.5,1.3c0.2,0.1,0.5,0.1,0.7,0.1
			C298.2,195.3,300.3,195.2,301.9,195.3z M298.2,202.5c-0.8,0-1.7,0.1-2.5,0.1c-0.8,0.1-1,0.5-0.5,1.1c1.2,1.5,2.7,2.8,4.6,3.4
			c3.4,1,6.2-0.3,8.9-2.1c0.6-0.4,1-1.1,0.7-1.9c-0.3-0.7-1-0.4-1.6-0.5c-0.2,0-0.4,0-0.6,0C304.2,202.2,301.2,202.4,298.2,202.5z
			 M306.1,197.4c0.2,0.5,0.4,1,0.4,1.6c0,0.3,0.2,0.5,0.5,0.4c0.6-0.2,1-0.5,1-1.1c0.1-0.7-0.4-0.9-0.9-0.9
			C306.9,197.3,306.6,197.2,306.1,197.4z M290.5,197.2c-0.5,0-0.7,0.2-0.8,0.5c-0.2,0.6-0.4,1.1-0.1,1.7c0.1,0.1,0.3,0.2,0.4,0.1
			c0.5-0.4,0.8-0.9,0.9-1.6C290.9,197.5,290.7,197.2,290.5,197.2z M292.2,198.6c0,0.7,0.2,1.1,0.6,1.1c0.5,0,0.7-0.3,0.7-0.7
			c0-0.5-0.6-1.3-0.9-1.2C292.2,197.9,292.3,198.3,292.2,198.6z M300.9,199.2c0-0.7-0.7-1.7-1.1-1.7c-0.3,0-0.3,0.2-0.4,0.4
			c0,0.6,0.6,1.8,0.9,1.8C300.7,199.6,300.9,199.4,300.9,199.2z M315.5,198.7c-0.2-0.5-0.1-1.2-0.8-1.4c-0.3-0.1-0.2,0.4-0.2,0.6
			c0,0.6,0.2,1.1,0.8,1.3C315.5,199.3,315.5,199,315.5,198.7z M296.1,198.9c0,0.2-0.3,0.5,0.1,0.6c0.3,0,0.4-0.2,0.5-0.5
			c0.1-0.5,0.2-0.9-0.1-1.3c-0.1-0.2-0.3-0.5-0.6-0.3c-0.2,0.1-0.1,0.4,0,0.6C296.1,198.2,296.2,198.5,296.1,198.9z M310.2,198.7
			c0-0.1-0.1-0.2-0.2-0.1c0,0-0.1,0.1-0.1,0.1c0,0.1,0.1,0.1,0.1,0.2C310.1,198.7,310.2,198.7,310.2,198.7z"/>
		<path d="M258.8,354.6c0-0.3,0-0.5,0.2-0.7c1.8-2.3,2.9-4.9,4.4-7.4c3.1-5.3,6.2-10.6,9.2-16c1.6-2.9,3.3-5.8,4.8-8.8
			c0.7-1.5,0.9-3,1.1-4.6c0.3-2.5,1.1-4.5,3.6-5.5c0.8-0.3,1.3-1.1,1.7-1.8c2-3.4,4.2-6.6,6.2-10.1c0.6-1.1,1-2.2,1-3.4
			c0.1-2.5,0.9-4.5,3.4-5.5c1.2-0.5,2-1.7,2.7-2.8c2.3-3.6,4.7-7.2,6.3-11.1c0.6-1.5,1.1-3.1,1.6-4.6c0.3-0.9,0.8-1.6,1.6-2
			c1.8-1,3-2.5,3.9-4.3c0.7-1.3,1.4-2.7,2.3-3.9c0.8-1.2,1.2-2.6,1.3-4c0.1-3.2,1.7-5.5,4.1-7.3c2.3-1.7,3.6-4.1,4.1-6.8
			c0.3-1.6,0.8-3,2.2-4.1c0.9-0.8,1.5-1.8,1.5-3.1c0-0.6,0.2-1.2,0.3-1.9c0.3-1.2,1.4-1.7,2.4-0.9c1.3,1.1,2.2,2.6,2.9,4.2
			c0.2,0.5-0.1,0.9-0.4,1.2c-0.5,0.6-1.2,1.1-1.9,1.5c-0.8,0.4-1.3,1.1-1.4,1.9c-0.1,2.3-1.7,3.7-3.2,5c-1.2,1-2,2.2-2.5,3.7
			c-0.4,1.2-0.7,2.4-0.8,3.7c-0.2,2.4-1,4.4-3.4,5.6c-1.6,0.8-2.5,2.3-3.5,3.7c-1.1,1.5-2.1,3.2-3,4.9c-0.8,1.5-1.1,3.2-1.4,4.8
			c-0.3,1.5-0.8,2.9-2.1,3.7c-2,1.3-3.2,3.3-4.3,5.3c-1.6,2.9-3.5,5.7-5.3,8.5c-0.6,1-0.8,2-0.8,3.1c-0.1,2-1.2,3.4-2.6,4.6
			c-1.8,1.5-3.2,3.2-4.3,5.3c-1.2,2.2-2.6,4.3-4,6.4c-1.1,1.9-2.1,3.8-2.2,6.1c-0.1,1-0.8,1.8-1.5,2.6c-1.1,1.2-2.3,2.3-3.3,3.6
			c-2,2.3-3.3,5.1-4.9,7.7c-3.1,5-6.2,10-9.2,15.1c-1.5,2.5-2.8,5.1-4.4,7.6c-0.3,0.5-0.6,0.9-1,1.3c-0.3,0.2-0.6,0.4-0.9,0.3
			C258.8,355.2,258.9,354.9,258.8,354.6z"/>
		<path d="M487.5,44.5c0,2.9-0.3,5.8-1.3,8.5c-0.5,1.3-1.4,2.4-2.3,3.4c-0.8,1-1.8,1.9-2.7,2.8c-0.5,0.5-1,0.8-1.8,0.7
			c-2.8-0.3-5.6-0.6-8.3-1.1c-0.8-0.1-1.3-0.6-1.8-1.3c-1.2-2-2.1-4.1-3.1-6.2c-0.2-0.4-0.3-1-0.3-1.5c0.5-3.1,0.7-6.2,1.3-9.3
			c0.3-1.4,0.8-2.7,1.7-3.7c1-1.1,1.9-2.2,3-3.2c0.7-0.7,1.5-1.1,2.6-1.1c1.6,0,3.1-0.2,4.3-1.7c0.7-0.8,1.2-0.6,1.5,0.4
			c0.3,1,0.9,1.5,1.9,1.6c0.9,0.1,1.5,0.6,2,1.3c1.1,1.6,2,3.4,2.8,5.2C487.7,41.1,487.4,42.8,487.5,44.5z M474.8,50.7
			c0.1,0.2,0.2,0.4,0.5,0.3c0,0,0.1-0.1,0.1-0.1C475.2,50.7,475,50.8,474.8,50.7c-0.7-0.8-1.2-1.8-1.6-2.8c-0.1-0.3-0.4-0.7-0.7-0.3
			c-0.4,0.6-0.3,1.4-0.2,2.1c0.1,0.6,0.7,0.5,1.1,0.6C473.8,50.4,474.3,50.6,474.8,50.7z M476.6,38.9c-2.5,0-3.8,2.2-2.8,4.2
			c0.3,0.6,0.7,1,1.2,1.4c0.8,0.7,1.7,1.3,2.6,1.9c1.1,0.7,1.5,2.1,1,3.3c-0.2,0.4-0.6,0.6-0.8,1c-0.2,0.2-0.3,0.4-0.1,0.7
			c0.2,0.2,0.5,0.2,0.7,0c2.3-1.4,2.6-4.1,1.1-5.5c-0.7-0.7-1.5-1.2-2.3-1.8c-0.9-0.6-1.8-1.3-2.4-2.2c-0.5-0.8-0.4-1.4,0.5-1.9
			c1.6-0.9,2.9-0.5,3.7,1.1c0.2,0.3,0.3,0.8,0.8,0.6c0.5-0.2,0.5-0.6,0.4-1.1c-0.1-0.4-0.3-0.6-0.7-0.8
			C478.6,39.3,477.5,39.1,476.6,38.9z"/>
		<path d="M408.2,49.7c-3.4,0.1-7.3,0-11.1-0.4c-1.7-0.2-2-0.5-2.1-2.2c-0.3-4.1-0.1-8.2-0.1-12.3c0-0.3,0.1-0.7,0.1-1
			c0.2-1.3,0.6-1.7,1.8-1.7c2.1-0.1,4.3-0.2,6.4-0.2c5.4-0.1,10.9,0.1,16.3,0.2c2.9,0.1,2.9,0.5,3,2.8c0.2,4.2,0.1,8.5,0.2,12.7
			c0,0.8-0.2,1.2-1,1.1c-0.9-0.1-1.7,0.6-2.6,0.7C415.6,49.7,412.1,49.7,408.2,49.7z M397.6,47.4c0.7-0.3,1.3-0.8,1.9-1.2
			c1.2-0.9,2.3-2.1,3.4-3.1c1.6-1.5,2.1-1.6,3.8-0.4c1.3,0.9,2.4,1,3.7,0c0.2-0.2,0.4-0.2,0.6-0.4c0.9-0.7,1.8-0.6,2.6,0.1
			c1.4,1.1,2.7,2.4,4.1,3.6c0.5,0.5,1.1,1,1.9,1.4c-0.1-0.8-0.6-1.1-1-1.4c-1.5-1.6-3.2-3-4.8-4.5c-0.9-0.8-0.9-1.2,0.1-1.9
			c1.2-0.9,2.3-1.9,3.4-2.8c0.9-0.8,1.9-1.4,2.6-2.8c-1.4,0.7-2.3,1.4-3.2,2.3c-2.2,2-4.4,4.1-6.8,5.8c-1.1,0.8-1.7,0.8-2.7,0.1
			c-0.6-0.4-1.2-0.8-1.7-1.3c-2.1-1.8-3.9-3.8-6.1-5.5c-0.7-0.5-1.3-1.1-2.3-1.4c0.3,0.6,0.7,0.9,1.1,1.2c1.9,1.5,3.7,3.1,5.4,4.7
			c0.7,0.7,0.7,0.9,0,1.5c-1.3,1.2-2.6,2.3-3.9,3.6C399,45.7,397.9,46.2,397.6,47.4c-0.1,0-0.1,0-0.2,0c-0.1,0,0,0.1,0.1,0.1
			C397.5,47.5,397.5,47.5,397.6,47.4z"/>
		<path d="M350.7,90.9c3.4,0,6.8-0.1,10.2,0.5c2.6,0.4,3.8,2,3.3,4.6c-0.2,1.5-0.9,2.8-1.9,3.9c-0.8,0.8-1.6,1.6-2.4,2.4
			c-0.3,0.3-0.6,0.8-1,0.4c-0.4-0.4,0.1-0.8,0.2-1.1c0.5-0.8,1-1.6,1.7-2.3c0.4-0.4,0.8-0.9,1-1.4c0.8-1.5,0.5-3.6-0.7-4.9
			c-0.6-0.6-1-0.5-1.5,0.3c-0.7,1.5-1.4,3-1.5,4.6c-0.1,1.1-0.4,2.1-0.7,3c-0.2,0.6-0.4,1.3-0.4,2c-0.1,0.7,0.2,1.3,0.8,1.7
			c0.9,0.6,1,1.2,0.5,2.2c-0.8,1.8-2.2,3.2-3.8,4.2c-1.3,0.9-2,2-2,3.5c0,0.9,0,1.8,0,2.6c0.1,1.5,0.9,2.7,2.3,3.3
			c1.3,0.6,2.4,1.6,3.6,2.5c0.5,0.3,0.5,0.6,0.2,1.1c-1.4,2.1-3.3,3.2-5.8,3.2c-2,0-4,0-6-0.5c-1.9-0.4-3.1-1.6-4.2-3
			c-0.3-0.4-0.1-0.7,0.2-1c1.3-1,2.5-2.1,4.1-2.6c1.4-0.4,1.9-1.7,2.2-3c0.3-1.4,0.3-2.9,0-4.4c-0.2-0.8-0.6-1.4-1.5-1.8
			c-2.1-1-3.9-2.5-4.5-4.9c-0.3-1.2-0.1-1.5,1-2.1c0.7-0.4,0.8-1,0.8-1.7c0-0.5-0.1-1.1-0.3-1.6c-0.5-1.4-0.8-2.7-0.8-4.2
			c0-1-0.4-1.9-1-2.7c-0.1-0.1-0.2-0.3-0.3-0.4c-0.8-1.4-0.3-2.4,1.3-2.6c1.2-0.1,2.3,0,3.5-0.1C348.6,90.9,349.7,90.9,350.7,90.9z"
			/>
		<path d="M417.8,231.9c0.2,2.3-0.4,4.8-1.5,7.1c-0.3,0.7-0.6,1.4-0.6,2.2c0.1,0.5,0.3,0.7,0.8,0.3c0.5-0.4,0.9-1,1.2-1.6
			c0.8-1.1,1.5-2.3,2.3-3.4c0.6-0.9,1.5-1.4,2.7-1.7c2.4-0.5,4.8-0.2,7.1-0.7c1.6-0.3,3.2-0.4,4.6-1.4c0.5-0.3,0.9-0.1,0.9,0.5
			c0,0.4-0.1,0.8-0.3,1.2c-1.3,2.2-2.9,4.1-5.2,5.3c-2,1-3.8,2.2-6,2.9c-0.4,0.1-0.8,0.2-1.2,0.3c-0.2,0-0.4,0.2-0.4,0.4
			c0,0.2,0.2,0.4,0.4,0.4c0.6,0.2,1.3,0.1,1.9,0c1-0.2,2.1-0.4,3.1-0.5c1.5-0.2,2.7,0.2,3.8,1.2c0.3,0.3,0.6,0.6,0.3,1
			c-0.2,0.5-0.7,0.4-1.1,0.3c-0.3-0.1-0.5-0.2-0.8-0.4c-0.4-0.2-0.9-0.3-1.3,0.1c-1.1,0.9-2.3,0.9-3.6,0.7c-0.6-0.1-1.2-0.1-1.8-0.2
			c-0.3,0-0.6,0.1-0.7,0.4c-0.1,0.3,0.2,0.5,0.4,0.5c1.7,0.3,2.5,1.8,3.5,2.9c0.4,0.5,0.5,0.9,0.2,1.5c-0.3,0.5-0.7,0.9-1.3,0.8
			c-0.6-0.1-0.8-0.5-0.9-1c-0.4-1.4-1-1.7-2.3-1.1c-1,0.5-1.9,0.5-2.8-0.2c-0.6-0.5-1.1-0.3-1.2,0.5c-0.1,0.7,0,1.3,0,2
			c0.1,1.2-0.3,1.7-1,1.7c-0.9,0-1.5-0.8-1.4-1.9c0-0.4,0.2-0.7,0.4-1c0.3-0.5,0.1-0.8-0.4-0.8c-0.4,0-0.8,0-1.1,0.1
			c-1.4,0.5-2.8,0.6-4.2,0.6c-0.1,0-0.3,0-0.4,0c-1.8,0.1-2.3,0.7-2.5,2.5c0,0.5,0,1-0.1,1.5c0,0.3-0.2,0.6-0.6,0.7
			c-0.4,0.1-0.7-0.1-1-0.4c-0.6-0.7-0.5-1.5-0.3-2.3c0.2-0.7,0.5-1.4,0.6-2.2c0.1-0.5,0.5-1,0-1.4c-0.5-0.3-0.9,0.1-1.4,0.4
			c-0.7,0.4-1.2,0.9-1.5,1.6c-0.5,1.1-1.4,1.7-2.5,2.2c-0.4,0.2-0.9,0.3-1.2-0.1c-0.3-0.4-0.2-0.9,0-1.3c0.2-0.4,0.5-0.7,0.8-1
			c1.3-1.3,2.6-2.7,4.4-3.4c1.4-0.6,1.6-2,1.8-3.2c0.1-0.9,0.3-1.7,0.6-2.5c0.5-1.1,0.2-1.9-0.8-2.7c-0.2-0.2-0.6-0.4-0.5-0.7
			c0.3-0.8,0.2-1.6,0.3-2.3c0-0.7,0.6-0.8,1.1-0.6c1.8,0.6,3.9,0.7,4.9,2.6c0.1,0.1,0.2,0.2,0.3,0.2c0.2-0.1,0.3-0.2,0.2-0.4
			c-0.1-0.7-0.2-1.4-0.2-2.1c-0.1-1.7-0.1-3.3,0.5-4.9c0.7-1.8,0.5-3.8,0.7-5.7c0.1-0.8,0-1.7,0.1-2.5c0-0.5,0-1.1,0.7-1.2
			c0.6-0.1,0.9,0.4,1.1,0.9c0.7,1.1,1,2.4,1.4,3.6C417.7,227.8,417.8,229.7,417.8,231.9z"/>
		<path d="M387.7,197.9c0.1-4.1-0.2-9.4-0.2-14.7c0-1.4,0-2.8,0.3-4.1c0.1-0.5,0-1.3,0.8-1.3c0.8,0,0.9,0.8,1,1.4
			c0.2,1.6,0.3,3.2,0.5,4.8c0,0.2,0,0.3,0,0.5c0.1,1,0.5,1.2,1.3,0.7c0.9-0.5,1.7-1.1,2.5-1.6c1.4-1,2.8-2.1,4.2-3.2
			c0.6-0.5,1.1-0.5,1.7-0.1c2,1.5,4.3,2.7,6.2,4.5c0.5,0.5,1.2,1.1,1.9,0.8c0.7-0.3,0.3-1.2,0.4-1.8c0.2-1.5,0-3,0.3-4.5
			c0.1-0.4,0.1-0.9,0.6-1c0.5-0.1,0.8,0.3,1,0.7c0.7,1.5,0.8,3.1,1,4.8c0.2,2.7-0.4,5.3-0.5,8c-0.2,5.6-0.2,11.1-0.1,16.7
			c0,1.9,0.1,3.9,0.1,5.8c0,1.1,0.1,2.1,0.4,3.1c0.2,0.7-0.1,1.1-0.8,1c-0.4,0-0.8,0-1.1,0c-6.8,0-13.7-0.1-20.5-0.1
			c-1.1,0-1.3-0.1-1.2-1C387.8,211.2,387.7,205.1,387.7,197.9z M407.5,205.7C407.5,205.7,407.5,205.7,407.5,205.7c0-2.1,0-4.1,0-6.2
			c-0.1-2.6-0.1-5.3-1.2-7.7c-1.2-2.6-3-4.6-5.7-5.7c-1-0.4-1.9-0.4-2.9,0.1c-3.9,2.1-6,5.4-6.4,9.7c-0.3,3.1-0.1,6.3-0.4,9.4
			c-0.2,2.6,0.3,5.3,0.2,7.9c0,2.8,0.2,2.9,3,3c4,0.1,8,0.1,12.1,0.1c1.4,0,1.4,0,1.4-1.4C407.5,211.8,407.5,208.7,407.5,205.7z"/>
		<path d="M381.1,243.1c0,1.6,0.2,3.2-0.3,4.8c-0.1,0.4-0.2,0.9-0.5,1.3c-0.6,0.7-1.5,0.7-1.8,0c-0.4-0.9-1-1-1.8-0.9
			c-1,0.1-1.1-0.1-0.7-0.9c1.1-1.9,0.9-3.9,0.5-5.9c-0.8-3.6-2.1-7.2-3-10.8c-0.3-1-0.6-2-1-3c-0.3-0.7-0.8-1.2-1.6-1.2
			c-1.2-0.1-2.1-0.7-2.9-1.6c-0.6-0.7-0.6-1.2,0.2-1.7c1.3-0.7,2.4-1.7,3.6-2.5c1.5-1,3.2-0.6,4.4,0.9c0.7,0.8,0.9,1.8,1.4,2.7
			c0.9,2.1,2.5,3.2,4.8,3.2c0.7,0,1.4,0,2.1,0c3.7-0.2,7.2,0.5,10.6,1.7c1.5,0.6,3.1,0.7,4.6-0.3c0.2-0.1,0.4-0.2,0.7-0.3
			c0.5-0.2,0.9,0,1.2,0.4c0.3,0.5,0,0.8-0.4,1.1c-1.2,0.9-2.6,1.2-4.1,1.3c-0.3,0-0.7,0-1,0c-0.7,0-0.9,0.3-0.8,1
			c0.2,2,0.4,4.1,0.6,6.1c0.1,1,0.3,1.9,0.8,2.7c0.8,1.5,1.1,3.1,1.1,4.8c0,0.7-0.2,1.2-1,1.2c-0.7,0-1.1-0.5-1.1-1.1
			c-0.1-0.9-0.1-1.8-0.4-2.7c-0.2-0.7-0.3-1.6-1.1-1.6c-0.8,0.1-0.6,1-0.7,1.7c-0.1,0.5,0,1-0.1,1.5c-0.1,0.7-0.6,1.1-1.4,1.1
			c-0.8,0-1.2-0.8-0.8-1.4c1-1.2,0.8-2.4,0.2-3.6c-0.9-1.7-2.1-3.1-3.5-4.4c-0.4-0.4-0.8-0.6-1.2-0.1c-1.3,1.3-3,1.6-4.6,2.1
			c-0.9,0.3-1.3,0.6-1.1,1.6C381.2,241.3,381.1,242.2,381.1,243.1z"/>
		<path d="M294.5,180.5c-1.1,0-2.3,0.1-3.4,0c-1.3-0.1-1.5-0.6-0.7-1.7c0.4-0.5,0.9-1,1.3-1.5c1.2-1.2,2.2-2.5,3-4
			c1.4-2.6,2.8-5.2,4.2-7.7c0.3-0.5,0.5-1.1,0.7-1.6c0.4-1.1,0.6-2-0.5-2.9c-0.7-0.6-0.4-1.5,0.6-1.7c1.7-0.3,3.4-0.4,5.1,0.2
			c1.4,0.5,1.8,1.5,1.2,2.8c-0.6,1.2-0.5,2.3-0.1,3.5c0.2,0.5,0.2,1,0.3,1.5c0.2,0.7,0.4,1.4,1.2,1.8c0.6,0.3,0.6,0.9,0.7,1.5
			c0,0.2,0,0.5,0.3,0.5c0.2,0,0.4-0.2,0.5-0.4c0.3-0.8,0.7-1.5,0.7-2.4c0-0.5,0-1,0.3-1.4c0.9-1.4,0.9-2.8,0.6-4.3
			c-0.1-0.7-0.2-1.3,0-2c0.2-0.8,0.6-1.4,1.5-1.4c1.5-0.1,3-0.1,4.5,0.1c0.8,0.1,1,0.5,0.8,1.2c0,0.1,0,0.2-0.1,0.2
			c-1.1,1.5-0.6,2.9,0.1,4.3c2,4,4,7.9,6.6,11.5c0.4,0.5,0.8,0.9,1.3,1.4c0.4,0.4,0.6,0.8,0.9,1.2c0.3,0.6,0.1,1-0.6,1.2
			c-0.2,0.1-0.4,0.1-0.6,0.1c-2.2,0-4.4,0-6.7,0c-0.6,0-1.2,0-1.5-0.7c-0.2-0.7,0.1-1.2,0.6-1.5c0.7-0.5,0.8-1.2,0.5-1.9
			c-0.9-1.9-1.8-3.8-3.1-5.4c-0.7-1-1.1-0.9-1.5,0.2c-0.7,1.8-1.2,3.6-2,5.4c-0.4,0.9-0.9,1.8-1.3,2.7c-0.4,0.8-0.8,1.6-0.9,2.5
			c0,0.5-0.1,1.1-0.8,1.1c-0.6,0-0.9-0.5-1-1c-0.7-2.3-1.8-4.3-2.6-6.5c-0.5-1.5-1.2-2.9-1.6-4.5c-0.1-0.4-0.2-0.8-0.6-0.9
			c-0.3,0-0.5,0.4-0.7,0.6c-1.3,1.9-2.2,4-3.3,6c-0.3,0.5-0.1,0.9,0.3,1.3c0.5,0.5,1.2,0.9,0.9,1.8c-0.3,0.8-1.2,0.7-1.9,0.7
			C296.6,180.5,295.6,180.5,294.5,180.5C294.5,180.5,294.5,180.5,294.5,180.5z"/>
		<path d="M300.3,359.9c-1.4-0.1-2.9-0.5-4.1-1.2c-3.1-1.8-6.4-2.4-9.9-2.5c-2.4-0.1-3.8-1.3-4.6-3.6c-0.7-2.2-2.1-4.1-3.4-6
			c-0.9-1.3-1.9-2.7-3-3.9c-1-1.2-1-2.5,0.2-3.4c1.6-1.4,3.3-2.6,5.1-3.6c1.6-0.9,2.8-0.6,3.7,1.3c1.5,3,3.6,5.7,5.7,8.2
			c0.5,0.5,1,0.8,1.7,1c2.8,0.8,5.6,1.3,8.4,2.2c1.4,0.5,2.6,1,3.8,1.9c2.6,1.8,2.9,4.9,0.8,7.3
			C303.6,358.8,302.2,359.8,300.3,359.9z"/>
		<path d="M362.6,326.9c0.4-1.3,0.8-2.6,1.7-3.6c0.3-0.3,0.7-0.5,1.1-0.3c0.5,0.2,0.5,0.7,0.5,1.1c-0.1,0.6-0.2,1.1-0.5,1.7
			c-0.2,0.3-0.3,0.6-0.4,0.9c-0.1,0.4,0,0.8,0.4,1.1c0.4,0.3,0.8,0.1,1.1-0.2c0.7-0.6,1.3-1.3,2-1.9c2.5-2.5,4.8-5.3,7-8.1
			c1.3-1.7,1.4-1.7-0.5-2.9c-0.9-0.6-1.7-1.4-2.5-2.1c-0.8-0.8-0.8-1.2,0.1-1.9c1.6-1.4,3.2-2.7,4.7-4.2c3.2-2.9,6.3-5.9,9.5-8.8
			c3.1-2.8,6.1-5.7,9.4-8c0.6-0.4,1-1,1.4-1.6c0.3-0.4,0.6-0.7,0.9-1.1c0.3-0.3,0.6-0.5,1-0.3c0.4,0.2,0.5,0.6,0.4,1
			c-0.2,0.6-0.4,1.3-0.8,1.8c-0.7,0.9-1.1,2-1.4,3c-0.7,1.9-1.7,3.7-2.6,5.5c-2.4,4.5-4.9,9.1-7.3,13.6c-1.5,2.8-3,5.7-4.5,8.6
			c-0.4,0.8-0.7,0.9-1.4,0.3c-0.7-0.5-1.4-1.2-2.1-1.7c-1.3-1-1.5-1-2.5,0.2c-2,2.3-4,4.6-5.9,7c-1,1.3-2.2,2.5-3.6,3.5
			c-0.9,0.6-1.9,1.1-3,0.5C363.3,329.3,362.8,328.2,362.6,326.9z"/>
		<path d="M364.5,384.7c0-3.2,0.7-5.3,2.5-7c1.6-1.5,3.2-2.9,5.5-3.3c1.6-0.4,3-1.4,4.2-2.5c1.2-1.1,2.4-2.1,3.3-3.4
			c0.3-0.5,0.8-0.9,1.5-0.8c1.5,0.2,3,0.3,4.4,0.9c1.5,0.7,1.9,1.6,1.2,3.1c-0.6,1.3-1.2,2.7-2.1,3.8c-0.6,0.8-1.1,1.7-1.2,2.8
			c-0.1,0.9-0.6,1.7-1,2.6c-0.5,1.1-0.3,1.3,0.9,1.4c1.4,0.2,1.8,1,1.1,2.3c-0.7,1.2-1.9,1.5-3.1,0.8c-0.3-0.2-0.6-0.4-1-0.6
			c-0.7-0.3-1.4,0-1.8,0.7c-0.4,0.8,0.2,1.1,0.7,1.4c0.6,0.4,1.3,0.6,2,0.8c1,0.4,1,0.8,0.3,1.5c-1,1-2.1,1.2-3.4,0.5
			c-1.5-0.8-3.2-0.9-4.9-1c-2-0.1-3.9-0.4-5.8-1c0,0-0.1,0-0.1,0C365.1,387.1,364.5,386.3,364.5,384.7z"/>
		<path d="M391.6,157.2c1.5,0.1,2.9,0.1,4.4,0.1c0.8,0,1.6-0.1,2.4-0.3c2.1-0.7,4.2-0.1,6.1,0.7c1.1,0.4,1.9,0.7,2.9-0.1
			c0.6-0.5,1-0.2,1,0.6c0,1.3,0.1,2.6-0.3,3.9c-0.3,1-0.4,2,0.1,2.9c0.2,0.3,0.2,0.6,0.2,1c0,0.8-0.7,1.3-1.5,1
			c-0.8-0.2-1.4-0.7-2.1-1.1c-0.9-0.6-1.9-1.2-2.9-0.4c-1.1,0.8-1.9,1.9-1.6,3.4c0.4,1.9,0.9,3.7,1.4,5.6c0.1,0.5,0.4,0.9,0.9,1.1
			c0.2,0.1,0.4,0.2,0.5,0.3c0.4,0.3,0.9,0.7,0.6,1.2c-0.3,0.6-0.9,0.5-1.4,0.3c-0.6-0.2-1.1-0.6-1.5-1.1c-0.4-0.5-0.9-1-1.5-1.1
			c-1.3-0.3-1.7-1.2-1.9-2.3c-0.2-1.3-0.4-2.7-0.4-4c0-0.5,0-0.9-0.1-1.4c-0.1-1.6-0.4-1.8-2-1.9c-0.8,0-1.5,0-2.3-0.1
			c-1.3,0-2.4-0.4-3.3-1.2c-0.2-0.1-0.3-0.2-0.5-0.4c-1.1-0.7-1.4-0.5-1.7,0.7c-0.3,1.6-1.2,2.8-1.9,4.2c-0.2,0.4-0.4,0.8-0.7,1.2
			c-1.2,1.4-0.8,2.6,0.2,3.8c0.3,0.4,0.6,0.7,0.8,1.2c0.2,0.7-0.1,1-0.8,0.9c0,0-0.1,0-0.1,0c-1.5-0.5-3.4-3-3.5-4.7
			c0-2.2,0.1-4.4-0.1-6.5c0-0.6-0.1-1.2-0.2-1.7c-0.6-3.2,0.9-4.8,4.1-5.7c1.8-0.5,3.6-0.2,5.4-0.2
			C390.8,157.1,391.2,157.2,391.6,157.2z M399.2,172.6c0-0.2-0.2-0.4-0.4-0.4c-0.3,0-0.4,0.2-0.4,0.4c0,0.2,0.1,0.4,0.4,0.4
			C399.1,173,399.2,172.8,399.2,172.6z"/>
		<path d="M324,143.6c0.9,0.1,1.8-0.4,2.6-0.7c0.5-0.2,0.9-0.3,1.5-0.4c0.9,0,1.4,0.4,1.5,1.2c0.1,0.7-0.3,1.3-1.1,1.5
			c-1.3,0.3-2.5,0.5-3.8,0.8c-1.2,0.4-1.1,0.3-1.1,1.5c0.1,3.7,1.5,7.1,2.5,10.6c1.2,4.2,2.5,8.3,3.7,12.5c1.1,3.8,2.2,7.6,3.2,11.5
			c0.6,2.1,1,4.2,1.7,6.3c0.3,0.8,0.5,1.6,0.8,2.4c0.2,0.6,0.2,1.2-0.5,1.5c-0.7,0.3-1-0.4-1.2-0.8c-0.8-1.8-1.4-3.6-2-5.4
			c-1.1-3.8-2.6-7.4-3.8-11.2c-1-3.4-2.2-6.8-3.3-10.1c-1.3-4.1-2.7-8.2-4.3-12.2c-0.5-1.4-1.6-2.4-1.7-4c0-0.5-0.6-0.6-1-0.5
			c-1.5,0.1-3.1,0.3-4.4,1.1c-0.8,0.5-1.5,0.2-1.9-0.7c-0.4-0.8-0.2-1.6,0.6-2c1.3-0.6,2.7-0.5,4-0.9c1.3-0.4,1.7-0.8,1.5-2.2
			c-0.2-1.3-0.6-2.5-1.1-3.7c-0.8-2.3-1.6-4.7-2-7.1c-0.2-1.4-0.9-2.5-2-3.4c-0.9-0.7-1.2-1.5-0.8-2.5c0.2-0.8,0.4-1.5,0.6-2.3
			c0.3-1.3,1.3-1.7,2.5-1.2c1.3,0.6,2.2,1.6,3.1,2.7c0.2,0.3,0.3,0.6,0.2,1c-0.9,2.2-0.1,4.2,0.7,6.2c1,2.9,2,5.7,3,8.6
			C321.9,143.4,322.2,143.6,324,143.6z"/>
		<path d="M286.4,447.5c0-2.6,0-5.1,0-7.7c0-0.8,0.3-1.3,1.1-1.6c1.5-0.5,3-0.9,4.6-1.2c0.8-0.2,1.5-0.1,2.2,0.4
			c0.8,0.5,1.8,0.7,2.5,0.2c1.6-1,3.2-0.5,4.7-0.2c1,0.2,2,0.6,3,0.8c0.8,0.2,1,0.6,1,1.3c0.1,1.6,0,3.3,0.2,4.9
			c0.1,1.7,0.2,3.5,0.1,5.3c-0.2,2.9-0.4,3.4-3.2,2.9c-0.5-0.1-1.1-0.2-1.6-0.3c-1-0.2-2.1-0.3-3.1,0.1c-1,0.4-2.1,0.5-3.2,0.2
			c-1.4-0.4-2.9-0.4-4.4-0.1c-1,0.2-1.9,0.1-2.9,0.1c-0.7,0-1.1-0.3-1.1-1.1C286.2,450.3,286.2,448.9,286.4,447.5z"/>
		<path d="M244.7,553.8c2.1,0,4.3,0,6.4,0c1.2,0,1.3,0.1,1.3,1.2c0,1.4,0.4,2.8,1.1,4c1.7,3.2,0.8,6-1,8.7c-0.8,1.1-1.9,2-2.1,3.5
			c-0.1,0.4-0.5,0.5-0.8,0.4c-1.4-0.7-2.8-0.4-4.2-0.4c-1.2,0-2.3,0.1-3.5-0.4c-0.4-0.2-0.9-0.1-1.3,0.2c-1.1,0.6-1.4,0.5-1.9-0.6
			c-0.3-0.6-0.7-1.1-1.2-1.6c-2.7-3-2.9-6.4-1.5-10c0.5-1.4,1.2-2.7,0.9-4.2c-0.1-0.5,0.3-0.6,0.7-0.6c1,0,2-0.1,3-0.1
			C242,553.8,243.4,553.8,244.7,553.8C244.7,553.8,244.7,553.8,244.7,553.8z"/>
		<path d="M442.8,219.3c-1.8,0.3-3.8,0.4-5.7,0.9c-0.9,0.3-1,0.6-0.8,1.5c0.1,0.6,0.4,1.1,0.6,1.6c0.7,2.4,0,4.4-2.2,5.6
			c-3.3,1.8-7.1-0.4-7.2-4.1c-0.1-2.6,0.1-5.1,0.6-7.6c0.7-3.2,2.7-5.7,4.8-8.1c2-2.3,4.3-4.3,6.5-6.4c1-0.9,1.9-1.9,2.6-3
			c0.2-0.3,0.4-0.8,0.8-0.6c0.4,0.2,0.3,0.7,0.2,1c-0.6,1.5-1.3,3-2.1,4.4c-0.9,1.6-2,3.1-2.5,4.9c-0.3,0.9-0.5,1.9-0.7,2.8
			c-0.2,0.8-0.6,1.4-1.4,1.8c-2.3,1.1-4.1,3.1-6.1,4.6c0,0-0.1,0.1-0.1,0.1c-0.3,0.4-0.9,0.9-0.6,1.3c0.3,0.5,1,0.1,1.5-0.1
			c1.1-0.5,2.1-1.3,3-2.1c1.7-1.5,3.5-2.8,5.3-4.2c1.7-1.3,3.6-2.1,5.4-3.2c1.7-1,3.8-1.1,5.7-1.4c1.8-0.3,3.6-0.5,5.5-0.8
			c0.3-0.1,0.7-0.1,0.9,0.3c0.2,0.4-0.1,0.6-0.3,0.9c-1.1,0.9-2.3,1.4-3.6,2.1c-1.9,1-3.7,2.2-5.3,3.6c-0.9,0.8-1.6,1.6-2,2.7
			C445.3,219,444.3,219.6,442.8,219.3z"/>
		<path d="M248.7,403c-4.9-0.1-9.8,0.1-14.7-0.1c-2.6-0.1-2.7-0.4-1.6-2.6c2.2-4.3,4.9-8.4,7.2-12.6c2.4-4.2,4.7-8.4,7.2-12.5
			c1.2-2,1.3-2,2.5,0c2.9,4.8,5.6,9.7,8.5,14.5c1.9,3,3.4,6.2,5.4,9.2c0.3,0.5,0.6,1.1,1.1,1.5c0.5,0.4,0.6,0.9,0.6,1.5
			c0,0.9-0.2,1.1-1.1,1.1C258.8,403,253.8,403,248.7,403z M249,392.8C249.1,392.8,249.1,392.8,249,392.8c0,2,0,4,0,6
			c0,1.4,0.3,1.5,1.5,0.9c0.7-0.3,1.3-0.8,1.9-1.2c3.9-2.4,3.3-7.3,1.8-9.8c-0.9-1.5-2.4-2-3.9-2.6c-1.1-0.5-1.3-0.4-1.4,0.8
			C249,388.9,249,390.9,249,392.8z M247.2,392.8c0-1.4,0-3.3-0.1-5.2c-0.1-1.4-0.6-1.7-1.9-1.1c-1.5,0.7-2.7,1.7-3.6,3.1
			c-1.2,1.9-1.3,4-0.2,6c0.9,1.6,2.4,2.9,3.9,4.1c0.4,0.3,0.7,0.7,1.2,0.4c0.6-0.2,0.5-0.8,0.6-1.3
			C247.2,396.9,247.2,395.1,247.2,392.8z M234.3,400.5c0,0.5,0.4,0.6,0.8,0.6c2.3,0.2,4.5,0.5,6.8,0.3c0.7-0.1,1.7,0.2,1.9-0.5
			c0.2-0.6-0.8-1-1.4-1.4c-1.9-1.4-3-3.2-3.2-5.6c0-0.3,0.1-0.8-0.3-0.8c-0.3-0.1-0.6,0.3-0.8,0.6c-0.1,0.1-0.2,0.3-0.3,0.4
			c-1,1.9-2,3.9-3.2,5.7C234.5,399.9,234.3,400.1,234.3,400.5z M255.7,401.4c0,0,0,0.1,0,0.1c1.8-0.1,3.7-0.2,5.5-0.4
			c1.1-0.1,1.2-0.3,0.7-1.2c-1.1-2.1-2.4-4-3.4-6.1c-0.1-0.2-0.3-0.4-0.4-0.6c-0.2-0.2-0.4-0.4-0.8-0.2c-0.3,0.2-0.2,0.4-0.2,0.7
			c0.3,2-0.6,3.6-1.9,5c-0.6,0.6-1.1,1.1-1.8,1.6c-0.2,0.2-0.5,0.4-0.4,0.7c0.1,0.4,0.5,0.4,0.8,0.4
			C254.3,401.4,255,401.4,255.7,401.4z M249.2,378.3c-0.3,0.1-0.3,0.3-0.3,0.6c-0.1,1.4,0,2.8,0.1,4.1c0.1,1.2,0.3,1.3,1.5,1.5
			c0.5,0.1,1.1,0.3,1.6,0.4c0.3,0.1,0.6,0.3,0.8-0.1c0.2-0.2,0.1-0.5-0.1-0.7c-1.2-1.7-2.1-3.6-3.1-5.4
			C249.5,378.5,249.5,378.3,249.2,378.3z M247.4,381.2C247.4,381.2,247.4,381.2,247.4,381.2c0-0.5,0-1-0.1-1.5
			c0-0.2-0.1-0.4-0.3-0.5c-0.3-0.1-0.4,0.2-0.6,0.4c-1.1,1.4-1.8,3.1-2.7,4.6c-0.3,0.6-0.1,0.9,0.6,0.8c2.1-0.2,3-1.1,3.1-3.3
			C247.4,381.5,247.4,381.4,247.4,381.2z"/>
		<path d="M336.6,246.9c2.5-0.1,4.6,0.1,6.7,0.4c1,0.1,1.4,0.5,1.4,1.4c-0.1,3.5-0.4,7-2.3,10.1c-0.6,0.9-1.3,1.7-2,2.4
			c-2,2-1.9,4.8,0.4,6.7c0.4,0.3,0.8,0.6,1.2,0.9c0.4,0.3,0.8,0.7,0.7,1.2c-0.1,0.6-0.7,0.8-1.2,0.9c-0.7,0.1-1.4,0.4-2.1,0.4
			c-2.3,0-4.5,0.2-6.8-0.2c-0.3-0.1-0.7-0.1-1-0.2c-0.4-0.2-0.9-0.5-1-1.1c-0.1-0.6,0.3-0.9,0.8-1.1c1.7-0.8,2.5-2.2,2.8-4
			c0.2-1.1-0.1-1.9-0.8-2.6c-0.7-0.8-1.4-1.6-2.1-2.3c-1.9-2.1-2.3-4.8-2.7-7.4c-0.2-1-0.3-2-0.4-3c-0.2-1.3,0.2-1.8,1.5-1.9
			C332.1,247,334.5,246.7,336.6,246.9z"/>
		<path d="M257.6,532.7c1,0.2,1.9,0.2,2.7,0.4c1.7,0.5,3,1.6,4.2,2.8c1.3,1.4,2.5,3,3.5,4.6c0.2,0.4,0.5,0.8,0.3,1.3
			c-0.2,0.4-0.7,0.3-1.2,0.3c-1.5,0-2.9-0.2-4.3-0.7c-0.6-0.2-1-0.1-1.5,0.3c-1.1,0.9-1.9,0.7-2.6-0.5c-0.2-0.4-0.5-0.8-0.8-1.1
			c-0.2-0.2-0.5-0.4-0.8-0.3c-0.4,0.1-0.3,0.5-0.3,0.7c0,1.1,0.4,2.1,0.6,3.2c0.4,1.7,0.9,3.3,1.4,4.9c0.3,1,0.6,1.3,1.7,1.3
			c0.5,0,1,0,1.5,0.2c1,0.4,1.1,1.1,0.4,1.9c-0.4,0.4-0.9,0.8-1.3,1.1c-0.2,0.1-0.3,0.3-0.1,0.5c0.2,0.2,0.4,0.1,0.6,0
			c0.1-0.1,0.2-0.2,0.4-0.3c0.3-0.4,0.7-0.6,1.1-0.2c0.4,0.3,0.5,0.8,0.2,1.3c-0.2,0.3-0.4,0.5-0.7,0.7c-0.9,0.4-1.8,0.8-2.7,1.3
			c-0.6,0.3-1,0.1-1.2-0.6c-0.6-2.3-1.3-4.6-1.8-6.9c-0.3-1.6-0.7-3.2-1.2-4.7c-0.3-0.9-0.4-1.8-0.7-2.7c-0.1-0.3-0.1-0.7-0.6-0.7
			c-0.4,0-0.5,0.4-0.7,0.7c-0.2,0.5-0.2,1-0.2,1.5c-0.1,1-0.3,1.3-1.3,1.1c-1-0.2-1.8,0.1-2.5,0.9c-0.9,1-2.2,1.6-3.4,2.2
			c-1,0.5-1.4,0.2-1.4-0.9c0.1-3.3,1-6.4,2.7-9.3c0.4-0.7,1-1.3,1.8-1.8c1.4-0.9,2.8-0.5,3.4,1c0.2,0.4,0.2,0.9,0.6,1.2
			c0.1,0.1,0.2,0.2,0.4,0.2c0.2-0.1,0.2-0.2,0.2-0.4c0.2-1.8-0.8-3.2-2.6-3.5c-0.4-0.1-0.7-0.1-1.1-0.3c-1.8-0.5-2.6-2.5-1.5-4.1
			c0.5-0.8,1-1.6,1.4-2.4c0.3-0.5,0.7-1,1.1-1.3c0.8-0.6,1.7-0.9,2.7-0.2c1.4,0.9,2.8,1.7,4.1,2.7c1,0.7,1.1,1.8,0.6,2.9
			C258.4,531.6,258,532.1,257.6,532.7z M256.7,534.4c-0.1-0.3,0.4-0.8-0.3-1c-0.4-0.1-0.7,0.1-0.9,0.5c-0.3,0.6-0.1,2.5,0.4,3
			c0.2,0.2,0.4,0.3,0.6,0.2c0.2-0.1,0.3-0.3,0.3-0.5C256.8,535.8,256.8,535.1,256.7,534.4z M255.4,530.2c0,0.6,0.2,1.1,0.9,1.1
			c0.7,0,1.1-0.4,1.1-1.1c0-0.7-0.5-1.3-1.1-1.3C255.6,529,255.5,529.6,255.4,530.2z M252,531.8c0-0.6-1.1-1.6-1.8-1.5
			c-0.3,0-0.5,0.2-0.5,0.5c-0.1,0.6,0.2,1.1,0.6,1.5c0.3,0.4,0.8,0.4,1.3,0.2C251.8,532.3,252,532.1,252,531.8z M253.1,526.8
			c-0.6,0-1.2,0.5-1.2,1.1c0,0.6,0.2,1,0.9,1c0.6,0,1.3-0.8,1.3-1.4C254,527,253.8,526.8,253.1,526.8z"/>
		<path d="M320,462c0.7,0,1.4,0,2.1,0c0.9,0.1,1.4,0.5,1.7,1.4c0.4,1.8,0.3,3.6,0.4,5.4c0.1,2.6,0.6,5.1,0.8,7.6
			c0.1,1,0,1.9-0.3,2.9c-0.3,1.2-1.3,1.8-2.6,1.9c-0.5,0-1,0-1.5-0.1c-1.1-0.3-2.2-0.1-3.1,0.5c-3.3,2.1-6.7,1.8-10.2,0.4
			c-0.4-0.1-0.8-0.3-1.1-0.5c-1.2-0.6-1.6-1.3-1.3-2.6c0.3-1.4,0.7-1.7,2.2-1.7c1.1,0,2.2-0.1,3.3-0.2c0.4,0,0.8-0.2,1.1-0.5
			c1.3-1.2,2.2-2.7,3.3-4.1c0.5-0.6,0.2-1.2,0.1-1.8c-0.4-1.5-0.8-2.9-1.2-4.4c-0.1-0.2-0.1-0.5-0.2-0.7c-0.4-2,0.2-2.7,2.2-2.8
			c0.8,0,1.4-0.6,2.2-0.6C318.5,462,319.3,462,320,462C320,462,320,462,320,462z"/>
		<path d="M344.9,386.5c-1.6,0.2-3,0-3.8-1.5c-0.8-1.3-2-1.9-3.5-2c-0.7,0-1.4-0.4-2.1-0.5c-0.5-0.1-1-0.2-1.3,0.2
			c-0.3,0.4-0.2,0.9,0,1.3c0.6,1.5,1.8,2.1,3.3,2.3c0.7,0.1,1.4,0.1,2.1,0.1c0.2,0,0.5,0.1,0.5,0.4c0,0.2-0.2,0.3-0.4,0.4
			c-1.7,0.9-5.5-0.2-6.5-1.8c-0.9-1.3-0.6-2.6,0.1-3.9c0.3-0.5,0.7-0.9,1.1-1.3c0.8-0.8,1.4-1.7,1.6-2.8c0.4-2.4,1.8-3.8,3.9-4.7
			c0.7-0.3,1.5-0.6,2.2-0.9c1.4-0.5,2.8-0.5,4.1,0.1c1.5,0.6,3,1.2,4.4,2.1c0.8,0.5,1.6,0.8,2.6,0.7c1.1-0.2,2,0.2,2.8,1
			c1,1,2.3,1.7,3.5,2.5c1.4,1,1.3,1.8-0.3,2.5c-0.6,0.3-1.3,0.4-1.9,0.4c-0.6,0-1.2,0.1-1.7,0.4c-1,0.5-1.2,1.2-0.5,2.1
			c0.7,1,0.8,1.6,0.2,2.2c-0.6,0.7-2.1,1-2.7,0.4c-1.5-1.4-3.6-1.8-5.3-3.1c-1.1-0.9-2.7-0.8-4.1-0.5c-0.3,0.1-0.5,0.2-0.8,0.4
			c-0.6,0.5-0.6,0.9,0.1,1.2C343.6,384.6,344.2,385.5,344.9,386.5z M354.2,384.4c0-0.4-0.3-0.6-0.7-0.7c-0.3,0-0.4,0.2-0.3,0.4
			c0,0.3,0.1,0.7,0.5,0.7C354,384.8,354.2,384.7,354.2,384.4z"/>
		<path d="M443.2,86.4c0-0.3,0-0.5,0-0.8c0-0.6-0.4-0.8-0.9-0.6c-1,0.5-2,1.1-2.8,1.8c-0.5,0.5-0.5,1.3-0.5,2c0,0.5,0.2,1.4-0.7,1.4
			c-0.8,0-0.8-0.8-0.9-1.3c-0.1-1.6,0.1-3.1,1.3-4.3c1.3-1.4,1.9-3.1,2.4-4.9c0.2-0.9-0.2-1.7-0.7-2.3c-0.6-0.9-1.3-1.7-2-2.6
			c-1.2-1.4-1.9-3.2-3.2-4.5c-0.4-0.4-0.5-0.9-0.1-1.2c0.4-0.4,0.9-0.1,1.2,0.2c0.9,0.7,1.5,1.5,2.1,2.5c0.9,1.4,1.7,3,3.2,3.9
			c0.9,0.5,1.8,0.8,2.8,0.9c4.7,0.5,9.4,0.7,14.2,0.1c0.9-0.1,1.7-0.4,2.4-1c1.1-0.9,1.5-0.8,2.2,0.5c0.2,0.4,0.5,0.9,0.8,1.3
			c0.9,1.3,0.2,2.6-1.3,2.8c-0.6,0.1-1.4-0.2-1.9,0.4c-0.8,0.9-1.5,1.8-2,2.9c-0.3,0.6,0.2,1,0.5,1.4c0.8,0.8,1.3,1.8,1.8,2.8
			c0.1,0.2,0.2,0.3,0.2,0.5c0.2,0.6,0.5,1.3-0.2,1.7c-0.7,0.4-1-0.5-1.3-0.9c-0.6-0.9-1.2-1.8-2-2.5c-0.3-0.3-0.6-0.6-1.1-0.4
			c-0.4,0.2-0.3,0.6-0.3,1c0,0.7,0.1,1.4,0.4,2.1c0.2,0.3,0.2,0.8-0.2,1c-0.3,0.3-0.7,0.1-1.1-0.1c-0.7-0.4-0.9-1.2-1-1.9
			c-0.2-1.1-0.2-2.2-0.7-3.3c-0.2-0.6-0.5-0.8-1.1-0.8c-1.8,0-3.5,0.1-5.2,0.4c-1.1,0.2-1.8,1.1-2,2.3c-0.2,1,0.2,1.7,1.1,2.2
			c0.5,0.3,1.2,0.7,0.8,1.5c-0.2,0.5-1,0.6-1.8,0.1C444.2,89.7,443.2,88.3,443.2,86.4z"/>
		<path d="M392.2,365.7c-3.2,0.3-5.7-0.9-7.5-3.4c-1-1.4-2-2.8-3-4.2c-1.2-1.7-2.9-2.2-4.8-1.6c-0.6,0.2-0.8,0.7-1.1,1.1
			c-1,1.4-1.9,2.9-2.9,4.3c-1.9,2.6-4.5,3.7-7.7,3.8c-4.6,0.1-8.4-2.7-9.8-7.1c-0.2-0.6-0.4-1.2-1.2-1.3c-0.3,0-0.5-0.3-0.7-0.4
			c-0.5-0.4-1.1-0.9-1-1.6c0.1-0.7,0.8-1,1.3-1.2c1.3-0.4,2-1.4,2.6-2.4c1.8-3.4,4.6-5.2,8.5-5.2c3.6,0,6.4,1.7,8.4,4.5
			c1.1,1.5,2.2,2.2,4,2c1.1-0.1,2.3-0.1,3.4,0c0.9,0,1.5-0.2,2.1-0.9c0.5-0.6,1.1-1.1,1.5-1.7c2.2-2.6,4.8-4.1,8.4-3.9
			c2.9,0.2,5.3,1.3,7,3.6c0.5,0.7,1.1,1.5,1.5,2.3c0.5,0.8,1,1.5,2.1,1.7c0.6,0.1,1.3,0.5,1.4,1.3c0.1,0.8-0.5,1.2-1.1,1.5
			c-1.1,0.5-1.8,1.5-2.3,2.6c-0.6,1.2-1.2,2.3-2.1,3.3C397.3,364.7,395,366,392.2,365.7z M391.4,348.1c-1.9-0.2-3.6,0.7-4.9,2.2
			c-1.4,1.6-2.7,3.3-2.7,5.6c0,4.4,3.9,8.2,8.4,8.3c4.7,0.1,8.4-4.2,8.4-8.2C400.6,351.5,396.7,348.1,391.4,348.1z M365.3,348
			c-1.5,0-3,0.1-4.2,0.9c-2.7,1.8-4.5,4-3.9,7.5c0.1,0.5,0.1,0.9,0.1,1.4c0.5,2.7,1.8,4.7,4.4,5.7c1.9,0.7,3.8,0.8,5.8,0.3
			c3.6-0.9,5.6-4.4,6-7.2C374,352,369,347.5,365.3,348z"/>
		<path d="M278.2,537.1c-1.8-0.1-3.5-0.2-5.3-0.4c-1.4-0.1-1.9-0.7-1.7-2.1c0.1-0.9,0.2-1.7,0.7-2.5c0.3-0.4,0.4-0.9,0.5-1.4
			c0.1-1.3,0.5-2.6,1.1-3.8c0.3-0.6,0.1-1.2-0.1-1.8c-0.5-1.3-0.9-2.7-1.4-4c-0.4-1.1-0.5-2.3-0.4-3.5c0.1-1.5,1.2-2.5,2.1-3.4
			c1.1-1.1,1.2-1.1,2.6-0.4c1.4,0.7,2.8,1.2,4.3,1.3c0.6,0.1,1.2,0.3,1.7,0.6c1.2,0.8,1.2,2.1-0.1,2.9c-0.5,0.3-1,0.4-1.6,0.4
			c-0.3,0-0.7-0.1-1,0c-1,0.2-1.3,0.7-0.7,1.5c0.7,1.1,1.9,1.8,2.7,2.8c1.4,1.8,1.8,3.7,0.8,5.8c-0.5,1.3-0.1,2.6,0.2,3.8
			c0.1,0.5,0.3,1,0.5,1.6c0.3,1.3-0.1,2-1.4,2.2C280.6,537,279.4,537.1,278.2,537.1z"/>
		<path d="M307.5,424.4c-0.1,3.4-1.5,5.8-4.5,7.3c-2.3,1.2-4.3,0.4-6.3-0.8c-0.9-0.6-1.5-1.4-1.9-2.4c-1.3-3.5-0.7-6.8,1.1-9.9
			c0.7-1.3,1.6-2.6,2.9-3.4c1.3-0.9,2.5-0.9,3.8,0c2,1.3,3,3.3,3.8,5.5c0.2,0.7,0.4,1.4,0.8,2C307.6,423.2,307.5,423.9,307.5,424.4z
			"/>
		<path d="M261.5,522.4c-0.5,0-0.9,0-1.4,0c-0.4,0-0.9-0.1-1-0.4c-0.6-1.2-1.9-1.6-2.7-2.5c-2.9-3.2-1.8-7.9,2.3-9.8
			c1.1-0.6,1.3-0.8,1.2-2.1c-0.1-0.7-0.1-1.3-0.1-2c0-0.9,0.4-1.3,1.3-1.4c0.4,0,0.8-0.1,1.3,0c1.8,0.2,2.4,1.1,1.7,2.8
			c-0.5,1.2-0.4,1.5,0.7,2.2c1,0.7,2.1,1.4,3,2.2c1.8,1.5,2.1,4.7,0.9,6.7c-0.6,1-1.4,2-2.2,2.9c-1,1-2.4,1.4-3.8,1.5
			C262.2,522.5,261.9,522.5,261.5,522.4C261.5,522.4,261.5,522.4,261.5,522.4z"/>
		<path d="M364.5,167.8c0-2.2,0.1-4.4,0.4-6.5c0.2-1.1,0.6-2,1.6-2.5c1-0.5,1.5-1.3,1.3-2.5c-0.1-0.3,0-0.7,0.1-1
			c0.2-1.1,0.6-1.6,1.4-1.7c0.8-0.1,1.7,0.5,2,1.4c0.1,0.2,0.2,0.5,0.1,0.7c-0.2,1.6,0.6,2.7,1.7,3.6c1.2,0.9,1.5,2.1,1.4,3.5
			c-0.2,3.3-0.2,6.6-0.5,9.9c-0.1,1.2-0.2,1.3-1.3,1.4c-2,0.1-4,0.1-6,0c-1.5-0.1-2.1-0.7-2.1-2.3
			C364.5,170.5,364.5,169.2,364.5,167.8z"/>
		<path d="M265.5,234.5c-1.4-0.1-2.5-0.4-3.7-0.7c-0.6-0.1-0.8-0.5-0.7-1.1c0.1-0.5,0.1-1.1,0.2-1.6c0-0.5-0.1-0.9-0.4-1.3
			c-2.3-2.7-1.3-7.3,1.9-8.8c2-1,3.9-1,5.8,0.2c2,1.3,3.1,4.5,2.1,6.7c-0.7,1.6-1.4,3.1-1.5,4.9c0,0.5-0.3,0.8-0.7,0.9
			C267.5,234.1,266.5,234.5,265.5,234.5z"/>
		<path d="M458.3,72.4c-1.4,0-2.6,0-3.7-0.5c-1.4-0.5-1.8-1.5-1.3-2.9c1.2-3.3,3.6-5.6,6.3-7.6c1-0.8,2-1.5,3.1-2.1
			c0.6-0.3,1.1-0.3,1.5,0.2c2,2.1,3.8,5.7,2.2,9c-0.3,0.6-0.5,1.1-1.1,1.5C463,71.3,460.8,72.7,458.3,72.4z"/>
		<path d="M374.4,282.1c1.1,0,2.3-0.1,3.4,0c1.1,0.1,1.5,0.6,1.2,1.7c-0.4,1.9-1.2,3.5-2.7,4.9c-1.2,1.1-1.3,1.8-0.1,3.1
			c0.7,0.7,1.3,1.5,1.9,2.3c0.4,0.6,0.7,1.2,0.9,1.9c0.4,1.5,0.1,2.3-1.3,2.7c-2.3,0.7-4.6,0.6-6.8-0.2c-1.1-0.4-1.3-1-0.9-2.1
			c0.6-1.5,1.4-2.8,2.4-3.9c0.2-0.2,0.4-0.4,0.6-0.6c1.1-1.2,1.1-2.1-0.1-3.3c-1.3-1.2-2.1-2.7-2.8-4.3c-0.7-1.4-0.2-2.2,1.4-2.2
			C372.5,282.1,373.5,282.1,374.4,282.1C374.4,282.1,374.4,282.1,374.4,282.1z"/>
		<path d="M404.3,110.8c-0.1,1.6-0.2,3.3-0.2,4.9c0,1.8,0.3,3.5,1.3,5c0.6,1,1.1,2.1,1.3,3.2c0.4,1.7-0.3,2.7-2.1,3
			c-1.9,0.3-3.8,0.2-5.5-0.5c-1.5-0.6-1.9-1.6-1.3-3.1c0.4-1.1,1.2-1.9,1.7-2.9c0.6-1.3,1-2.7,1.2-4.1c0.1-0.7,0-1.3-0.3-1.8
			c-0.6-0.9-0.6-1.7-0.1-2.6c0.2-0.4,0.3-0.9,0.1-1.4c-0.7-1.3,0-2.2,0.8-3c1-1.1,1.6-1.1,2.5,0.1
			C404.3,108.6,404.4,109.7,404.3,110.8z"/>
		<path d="M421.7,207.8c0,1,0,2,0,3c0,1.5,0.2,2.9,1.3,4.1c0.2,0.2,0.3,0.4,0.4,0.6c0.9,1.7,0.5,2.7-1.4,3.4
			c-1.7,0.6-3.3,0.4-4.9-0.2c-1.4-0.6-1.6-1.4-0.9-2.7c0.2-0.4,0.4-0.7,0.7-1c1.4-1.9,1.7-4,1.4-6.3c-0.2-1.7-0.3-3.4-0.1-5.1
			c0.1-1.1,0.5-2.3,0.8-3.4c0.1-0.4,0.3-0.6,0.7-0.6c0.4,0,0.6,0.3,0.6,0.6c0.1,1,0.5,1.7,1,2.5c0.3,0.5,0.3,1.1,0.3,1.7
			C421.7,205.6,421.7,206.7,421.7,207.8z"/>
		<path d="M315,416.4c4.1,0.3,8,0.9,11.4,3c1.6,1,3.1,2.1,4,3.9c0.5,1,0.4,1.4-0.5,2c-0.4,0.3-0.8,0.4-1.2,0.6
			c-1.6,0.6-2.2,0.5-3.2-0.9c-0.5-0.7-1-1.5-1.4-2.2c-1.3-2.1-3.3-3-5.6-3.5c-2.4-0.6-4.9-0.8-7.3-1c-0.6,0-1.4,0.1-1.5-0.6
			c-0.1-0.7,0.8-0.6,1.3-0.7C312.3,416.7,313.7,416.4,315,416.4z"/>
		<path d="M299,337.8c0.9,0,1.9,0.6,2.7-0.3c0.2-0.2,0.5,0.1,0.7,0.2c2.4,2,5.1,3.6,7.5,5.7c0.4,0.3,0.7,0.7,0.7,1.3
			c0,0.3-0.1,0.6-0.4,0.7c-0.3,0.1-0.5-0.1-0.6-0.3c-1.1-1.8-2.8-2.5-4.9-2.4c-1.2,0.1-2.4,0.1-3.6,0.2c-0.4,0-0.9,0.2-1-0.2
			c-0.2-0.5,0.5-0.6,0.8-0.8c0.4-0.3,0.8-0.4,1.2-0.6c0.3-0.1,0.6-0.1,0.6-0.5c0-0.4-0.4-0.4-0.6-0.6c-0.8-0.5-1.7-0.6-2.6-0.8
			c-0.3-0.1-0.7-0.1-1-0.2c-0.3-0.1-0.8-0.3-0.7-0.8c0.1-0.5,0.5-0.5,0.9-0.5C298.8,337.8,298.9,337.8,299,337.8z"/>
		<path d="M341.3,90.9c0.5,0,0.8,0.3,0.5,0.8c-0.1,0.2-0.3,0.4-0.5,0.6c-1.5,1.8-2.3,4.1-0.4,6.5c0.7,0.9,1.3,1.9,1.8,2.9
			c0.3,0.6,0.7,1.4,0.1,1.7c-0.7,0.4-0.8-0.6-1.1-1c-0.3-0.5-0.7-1-1.1-1.5c-1.6-1.5-2.5-3.5-2.9-5.6c-0.3-1.4,0.1-2.5,1.4-3.2
			C339.7,91.5,340.4,91,341.3,90.9z"/>
		<path d="M373.6,407.2c-0.5,0.1-1-0.2-1.4-0.6c-1-1-2.1-1.9-2.8-3.2c-0.5-0.8-0.5-1.5,0.1-2.1c0.6-0.6,1.3-0.5,1.8-0.2
			c1.5,0.9,2.8,2.1,3.8,3.6C375.7,405.8,374.9,407.1,373.6,407.2z"/>
		<path d="M366.5,248.1c0.6,0,1.2,0.7,1.2,1.3c0,0.6-0.9,1.4-1.6,1.4c-0.7,0-0.7-0.6-0.7-1.1C365.5,248.7,365.9,248.1,366.5,248.1z"
			/>
		<path d="M300.3,336.5c-0.2-0.1-0.5-0.1-0.8-0.2c-0.3-0.1-0.6-0.1-0.6-0.5c0.1-0.3,0.4-0.3,0.6-0.4c0.3-0.1,0.7,0,1,0.1
			c0.3,0.1,0.7,0.1,0.6,0.5C301.1,336.5,300.7,336.5,300.3,336.5z"/>
		<path d="M290.7,333.8c-0.3,0-0.4-0.2-0.4-0.5c0-0.3,0.2-0.5,0.5-0.4c0.3,0,0.4,0.2,0.4,0.5C291.1,333.6,290.9,333.8,290.7,333.8z"
			/>
		<path d="M343.9,346.1c0,0.2-0.1,0.4-0.3,0.4c-0.2,0-0.4-0.2-0.4-0.4c0-0.2,0.1-0.4,0.3-0.4C343.8,345.7,343.9,345.9,343.9,346.1z"
			/>
		<path d="M279.2,172.2c0.1,0,0.5,0,0.8,0.1c0.6,0.2,0.9,0.5,0.4,1.1c-0.3,0.3-0.4,0.6-0.5,1c-0.3,1.7-2.3,2.5-3.8,2.1
			c-0.8-0.2-1.3-0.8-1.4-1.6c-0.1-0.8,0.7-1.9,1.6-2.2C277.1,172.4,278,172.1,279.2,172.2z"/>
	</g>
</g>
</svg>
